<svg xmlns="http://www.w3.org/2000/svg" viewBox="0 0 482.72 332.24"><defs><style>.cls-1{fill:#0a284d;}.cls-2{fill:#aeb9ba;}.cls-3{fill:#afafaf;}.cls-4{fill:#6db75d;}.cls-5{fill:#777778;}.cls-6{fill:#c0bebe;}.cls-7{fill:#d7d8d8;}.cls-8{fill:#ef9007;}.cls-9{fill:#fff;}.cls-10{fill:#ff671d;}.cls-11{fill:#75b2fc;}.cls-12{fill:#1226aa;}.cls-13{fill:#e00ae0;}.cls-14{fill:#07682e;}.cls-15{fill:#9a52f7;}.cls-16{fill:#b2afaf;}.cls-17{fill:#e53a05;}.cls-18{fill:#8dd171;}.cls-19{fill:#8a8b8d;}.cls-20{fill:#f9bd16;}.cls-21{fill:#a20070;}.cls-22{fill:#ffa91f;}.cls-23{fill:#aeb3b7;}</style></defs><g id="Capa_1" data-name="Capa 1"><rect class="cls-1" width="482.72" height="332.24"/><polygon class="cls-2" points="162.56 251.86 139.16 249.04 13.78 52.7 10.77 33.17 18.66 32.05 32.55 22.66 330.25 22.66 371.17 41.81 431.61 27.54 454.88 50.07 469.15 106.38 407.96 147.86 373.6 177.2 285.95 252.04 251.04 262.55 162.56 251.86"/><path class="cls-3" d="M251.08,263.06H251L138.87,249.5l-.13-.19L13.3,52.88,10.2,32.75l8.27-1.18,13.92-9.41,298.07.05,40.76,19.07L431.76,27l23.57,22.82,0,.14,14.35,56.65-61.48,41.68-122,104.21-.1,0Zm-88.46-11.69L251,262l34.71-10.45L407.63,147.48l60.95-41.32L454.44,50.33l-23-22.24L371.11,42.33l-41-19.17H32.7l-14,9.38L11.34,33.6l2.91,18.92,125.21,196Z"/><rect class="cls-4" x="209.2" y="36.28" width="150.89" height="72.47" rx="13.15"/><polygon class="cls-4" points="366.29 117.08 366.29 145.39 376.05 169.73 404.77 145.39 460.52 106.57 447.38 52.23 429.17 36.28 396.13 44.25 397.82 51.67 424.1 51.67 424.1 72.41 435.55 72.41 435.55 103.01 394.44 103.01 394.44 117.83 366.29 117.08"/><polygon class="cls-5" points="225.52 234.58 220.06 238.53 217.11 258.45 251.04 262.55 285.95 252.04 373.6 177.2 357.56 152.8 225.52 234.58"/><path class="cls-5" d="M251.08,263.06H251l-34.44-4.16,3.06-20.65,5.66-4.08,132.45-82,16.55,25.17-88.17,75.23Zm-33.4-5L251,262l34.71-10.45,87.24-74.49-15.53-23.62L225.8,235l-5.27,3.81Z"/><polyline class="cls-6" points="44.07 38.66 50.6 34.54 60.28 50.07"/><polygon class="cls-7" points="180.33 76.91 149.96 29.35 69.82 79 100.2 126.56 180.33 76.91"/><path class="cls-7" d="M210.79,124.59l-20-31.26C189.09,94.74,110.69,143,110.69,143l20,31.25Z"/><polygon class="cls-7" points="206.03 226.14 190.41 203.9 195.97 201.26 241.25 173.21 221.29 141.02 141.16 190.67 168.96 234.24 171.44 232.65 173.91 231.07 189.25 255.09 217.11 258.45 220.06 238.53 206.03 226.14"/><polygon class="cls-8" points="189.25 255.09 189.25 255.09 173.91 231.07 189.25 255.09"/><path class="cls-9" d="M189.25,255.59a.51.51,0,0,1-.42-.23l-15.34-24a.56.56,0,0,1-.08-.27.49.49,0,0,1,.24-.42.5.5,0,0,1,.69.15l15.34,24a.52.52,0,0,1,.07.27.5.5,0,0,1-.5.5Z"/><rect class="cls-8" x="107.11" y="151.5" width="14.88" height="22.73" transform="translate(-69.72 87.43) rotate(-32.62)"/><path class="cls-9" d="M114.41,177h-.11a.51.51,0,0,1-.32-.22l-12.23-19.15a.5.5,0,0,1,.15-.69l12.54-8a.48.48,0,0,1,.37-.06.49.49,0,0,1,.32.22l12.23,19.15a.5.5,0,0,1-.15.69l-12.54,8A.48.48,0,0,1,114.41,177Zm-11.55-19.5,11.7,18.31,11.69-7.48L114.55,150Z"/><polygon class="cls-8" points="44.07 38.66 31.42 46.5 44.58 67.12 57.12 59.1 44.07 38.66"/><path class="cls-9" d="M44.58,67.62h-.11a.5.5,0,0,1-.31-.22L31,46.77a.51.51,0,0,1,.16-.69L43.8,38.24a.51.51,0,0,1,.69.16l13,20.43a.5.5,0,0,1-.15.69l-12.54,8A.5.5,0,0,1,44.58,67.62Zm-12.47-21L44.73,66.43,56.43,59,43.91,39.35Z"/><polygon class="cls-8" points="171.44 232.65 156.43 242.26 162.56 251.86 189.25 255.09 173.91 231.07 171.44 232.65"/><path class="cls-9" d="M189.25,255.59h-.06l-26.69-3.22a.49.49,0,0,1-.36-.23l-6.13-9.6a.5.5,0,0,1,.15-.69l17.48-11.19a.47.47,0,0,1,.38-.07.55.55,0,0,1,.32.22l15.34,24a.51.51,0,0,1,0,.53A.52.52,0,0,1,189.25,255.59Zm-26.39-4.19,25.4,3.06-14.5-22.7-2,1.31h0l-14.59,9.34Zm8.58-18.75h0Z"/><rect class="cls-8" x="94.5" y="129.49" width="10.31" height="11.58" transform="translate(-57.2 75.05) rotate(-32.62)"/><path class="cls-9" d="M98.42,143.44h-.1a.52.52,0,0,1-.32-.22l-6.23-9.76a.5.5,0,0,1,.15-.69l8.69-5.56a.55.55,0,0,1,.38-.07.53.53,0,0,1,.31.22l6.23,9.76a.5.5,0,0,1-.15.69l-8.69,5.56A.5.5,0,0,1,98.42,143.44Zm-5.54-10.11,5.7,8.92,7.84-5-5.69-8.92Z"/><rect class="cls-8" x="70" y="97.18" width="14.88" height="15.14" transform="translate(-44.25 58.26) rotate(-32.62)"/><path class="cls-9" d="M75.25,115.64l-.11,0a.45.45,0,0,1-.32-.22l-8.14-12.75a.5.5,0,0,1,.15-.69l12.53-8a.47.47,0,0,1,.38-.07.5.5,0,0,1,.31.22l8.15,12.75a.51.51,0,0,1-.15.7l-12.54,8A.5.5,0,0,1,75.25,115.64Zm-7.46-13.11,7.61,11.91L87.09,107,79.48,95.05Z"/><rect class="cls-8" x="101.36" y="157.54" width="7.52" height="22.73" transform="translate(-74.46 83.3) rotate(-32.62)"/><path class="cls-9" d="M108.07,181H108a.52.52,0,0,1-.32-.22L95.42,161.62a.5.5,0,0,1,.15-.69l6.33-4.05a.47.47,0,0,1,.38-.07.5.5,0,0,1,.31.22l12.24,19.16a.49.49,0,0,1-.16.69l-6.33,4.05A.5.5,0,0,1,108.07,181ZM96.53,161.5l11.7,18.32,5.48-3.52L102,158Z"/><rect class="cls-8" x="127.85" y="182.53" width="14.88" height="25.61" transform="translate(-83.95 103.73) rotate(-32.62)"/><path class="cls-9" d="M135.92,210.64h-.11a.5.5,0,0,1-.31-.22l-13.79-21.59a.5.5,0,0,1,.15-.69l12.54-8a.5.5,0,0,1,.38-.06.44.44,0,0,1,.31.22l13.78,21.58a.5.5,0,0,1-.15.69l-12.53,8A.53.53,0,0,1,135.92,210.64Zm-13.1-21.93,13.25,20.74L147.76,202l-13.24-20.74Z"/><rect class="cls-8" x="138.77" y="204.95" width="14.88" height="14.97" transform="translate(-91.45 112.31) rotate(-32.62)"/><path class="cls-9" d="M144,223.26h-.11a.5.5,0,0,1-.31-.22l-8.06-12.62a.5.5,0,0,1,.15-.69l12.53-8a.47.47,0,0,1,.38-.07.5.5,0,0,1,.31.22l8.06,12.62a.5.5,0,0,1-.15.69l-12.53,8A.53.53,0,0,1,144,223.26Zm-7.37-13,7.52,11.78,11.69-7.48-7.52-11.78Z"/><polygon class="cls-8" points="126.94 168.43 114.41 176.46 108.07 180.51 115.8 192.61 122.13 188.56 134.67 180.53 126.94 168.43"/><path class="cls-9" d="M115.8,193.11h-.11a.5.5,0,0,1-.31-.22l-7.73-12.1a.5.5,0,0,1,.15-.69L126.67,168a.5.5,0,0,1,.38-.06.45.45,0,0,1,.31.21l7.73,12.11a.5.5,0,0,1-.15.69L116.07,193A.5.5,0,0,1,115.8,193.11Zm-7-12.45L116,191.92l18-11.54-7.19-11.26Z"/><polygon class="cls-8" points="168.96 234.24 156.51 214.74 143.98 222.76 156.43 242.26 171.44 232.65 168.96 234.24"/><path class="cls-9" d="M156.43,242.76h-.11a.5.5,0,0,1-.31-.22L143.56,223a.5.5,0,0,1,.15-.69l12.53-8a.51.51,0,0,1,.38-.07.5.5,0,0,1,.31.22l12.19,19.08,2-1.32a.5.5,0,0,1,.54.84l-15,9.61A.53.53,0,0,1,156.43,242.76Zm-11.76-19.85,11.91,18.66,11.69-7.49-11.91-18.65Z"/><rect class="cls-8" x="63.23" y="89.14" width="14.88" height="10.01" transform="translate(-39.6 52.94) rotate(-32.62)"/><path class="cls-9" d="M67.1,102.88H67a.5.5,0,0,1-.31-.22l-5.39-8.44a.5.5,0,0,1,.15-.69L74,85.5a.48.48,0,0,1,.37-.07.55.55,0,0,1,.32.22l5.38,8.44a.5.5,0,0,1-.15.69l-12.53,8A.53.53,0,0,1,67.1,102.88Zm-4.7-8.79,4.85,7.6L78.94,94.2l-4.85-7.59Z"/><rect class="cls-8" x="57.87" y="80.78" width="14.88" height="9.93" transform="translate(-35.92 48.72) rotate(-32.62)"/><path class="cls-9" d="M61.71,94.44H61.6a.5.5,0,0,1-.31-.22L56,85.84a.5.5,0,0,1,.15-.69l12.53-8a.5.5,0,0,1,.38-.06.45.45,0,0,1,.31.21l5.35,8.37a.5.5,0,0,1-.16.69L62,94.36A.53.53,0,0,1,61.71,94.44Zm-4.65-8.71,4.8,7.52,11.69-7.48-4.8-7.53Z"/><rect class="cls-8" x="49.3" y="61.39" width="14.88" height="21.9" transform="matrix(0.84, -0.54, 0.54, 0.84, -30.04, 41.99)"/><path class="cls-9" d="M56.37,86.08l-.11,0a.44.44,0,0,1-.31-.22L44.16,67.39a.5.5,0,0,1,.15-.69l12.54-8a.44.44,0,0,1,.37-.07.52.52,0,0,1,.32.22L69.32,77.28a.51.51,0,0,1-.15.7L56.64,86A.53.53,0,0,1,56.37,86.08ZM45.27,67.27,56.52,84.88,68.21,77.4,57,59.79Z"/><rect class="cls-8" x="78.98" y="109.69" width="14.88" height="18.24" transform="translate(-50.36 65.19) rotate(-32.56)"/><path class="cls-9" d="M85.06,131H85a.47.47,0,0,1-.31-.22L74.82,115.4a.5.5,0,0,1,.16-.69l12.53-8a.5.5,0,0,1,.38-.06.45.45,0,0,1,.31.21L98,122.21a.49.49,0,0,1-.16.69l-12.53,8A.5.5,0,0,1,85.06,131Zm-9.12-15.71,9.27,14.52,11.69-7.48L87.63,107.8Z"/><polygon class="cls-8" points="98.42 142.94 92.19 133.18 88.34 135.64 82.01 139.7 88.24 149.46 94.58 145.4 98.42 142.94"/><path class="cls-9" d="M88.24,150l-.1,0a.45.45,0,0,1-.32-.22L81.59,140a.51.51,0,0,1,.15-.7l10.18-6.51a.51.51,0,0,1,.38-.07.5.5,0,0,1,.31.22l6.24,9.76a.5.5,0,0,1-.16.69l-10.18,6.52A.5.5,0,0,1,88.24,150ZM82.7,139.85l5.69,8.91,9.34-6L92,133.87Z"/><polygon class="cls-8" points="114.71 149.28 107.11 137.38 98.42 142.94 94.58 145.4 88.24 149.46 95.84 161.35 102.17 157.3 114.71 149.28"/><path class="cls-9" d="M95.84,161.85h-.11a.5.5,0,0,1-.31-.22l-7.6-11.9A.5.5,0,0,1,88,149L106.84,137a.51.51,0,0,1,.38-.07.5.5,0,0,1,.31.22l7.6,11.9a.5.5,0,0,1-.15.69L96.11,161.77A.53.53,0,0,1,95.84,161.85Zm-6.91-12.24,7.06,11,18-11.54L107,138.07Z"/><polygon class="cls-8" points="97.59 122.48 85.06 130.5 75.25 115.14 68.91 119.19 78.73 134.56 82.01 139.7 88.34 135.64 92.19 133.18 100.88 127.62 97.59 122.48"/><path class="cls-9" d="M82,140.2l-.11,0a.45.45,0,0,1-.31-.21l-13.1-20.51a.5.5,0,0,1,.15-.69L75,114.71a.48.48,0,0,1,.37-.06.45.45,0,0,1,.32.22l9.54,14.94,12.12-7.75a.53.53,0,0,1,.37-.07.52.52,0,0,1,.32.22l3.28,5.14a.5.5,0,0,1-.15.69L82.28,140.12A.5.5,0,0,1,82,140.2ZM69.6,119.34,82.16,139l18-11.54-2.75-4.3-12.11,7.76A.5.5,0,0,1,85,131a.47.47,0,0,1-.31-.22l-9.55-14.94Z"/><polygon class="cls-8" points="60.28 50.07 50.6 34.54 44.07 38.66 53.95 54.12 60.28 50.07"/><path class="cls-9" d="M54,54.62h-.11a.5.5,0,0,1-.31-.22L43.65,38.93a.44.44,0,0,1-.07-.37.52.52,0,0,1,.22-.32l6.53-4.13a.51.51,0,0,1,.69.16L60.71,49.8a.51.51,0,0,1-.16.69l-6.33,4A.53.53,0,0,1,54,54.62Zm-9.19-15.8L54.1,53.43l5.5-3.52L50.44,35.23Z"/><polygon class="cls-4" points="53.09 32.81 64.36 50.54 57.7 55.04 70.45 75.14 142.66 30.41 53.09 32.81"/><polygon class="cls-10" points="105.19 57.08 115.38 73.03 126.57 66.1 116.38 50.15 105.19 57.08"/><path class="cls-9" d="M115.22,73.71,104.5,56.92l12-7.45,10.72,16.79Zm-9.33-16.47,9.64,15.11,10.34-6.41-9.64-15.11Z"/><polygon class="cls-10" points="82.11 71.38 92.3 87.33 104.19 79.96 94 64.02 82.11 71.38"/><path class="cls-9" d="M92.14,88,81.42,71.23l12.74-7.9,10.72,16.79ZM82.81,71.54l9.64,15.11,11-6.84L93.85,64.7Z"/><polygon class="cls-10" points="69.82 79 80.01 94.94 92.3 87.33 82.11 71.38 69.82 79"/><path class="cls-9" d="M79.85,95.63,69.13,78.84,82.27,70.7,93,87.49ZM70.52,79.15l9.64,15.11L91.6,87.17,82,72.07Z"/><polygon class="cls-10" points="94 64.02 104.19 79.96 115.38 73.03 105.19 57.08 94 64.02"/><path class="cls-9" d="M104,80.65,93.31,63.86l12-7.46,10.72,16.79ZM94.7,64.17l9.64,15.11,10.34-6.41L105,57.77Z"/><polygon class="cls-10" points="127.57 43.22 116.38 50.15 126.57 66.1 137.76 59.16 127.57 43.22"/><path class="cls-9" d="M126.41,66.78,115.69,50l12-7.46,10.72,16.79Zm-9.33-16.47,9.64,15.1L137.06,59,127.42,43.9Z"/><polygon class="cls-10" points="148.95 52.23 138.76 36.28 127.57 43.22 137.76 59.16 148.95 52.23"/><path class="cls-9" d="M137.6,59.85,126.88,43.06l12-7.46,10.72,16.79Zm-9.33-16.48,9.64,15.11,10.35-6.41L138.61,37Z"/><polygon class="cls-10" points="160.14 45.3 149.96 29.35 138.76 36.28 148.95 52.23 160.14 45.3"/><path class="cls-9" d="M148.79,52.91,138.07,36.12l12-7.46,10.72,16.79Zm-9.33-16.47,9.65,15.11,10.34-6.41L149.8,30Z"/><polygon class="cls-11" points="155.1 80.5 174.89 68.39 160.14 45.3 140.42 57.52 155.1 80.5"/><path class="cls-9" d="M154.94,81.19,139.72,57.36,160.3,44.61l15.28,23.94ZM141.11,57.67l14.14,22.15,18.94-11.59L160,46Z"/><polygon class="cls-12" points="123.3 112.25 133.79 128.68 145.71 121.3 135.21 104.87 123.3 112.25"/><path class="cls-9" d="M133.63,129.37l-11-17.28,12.77-7.91,11,17.28Zm-9.64-17L134,128,145,121.14l-9.95-15.59Z"/><polygon class="cls-12" points="100.2 126.56 110.69 142.99 122.47 135.7 111.97 119.27 100.2 126.56"/><path class="cls-9" d="M110.54,143.68l-11-17.28,12.63-7.82,11,17.28Zm-9.65-17,10,15.59,10.92-6.77-10-15.59Z"/><polygon class="cls-12" points="111.97 119.27 122.47 135.7 133.79 128.68 123.3 112.25 111.97 119.27"/><path class="cls-9" d="M122.31,136.38l-11-17.27,12.17-7.54,11,17.27Zm-9.64-16.95,10,15.58,10.48-6.49-10-15.58Z"/><polygon class="cls-12" points="190.83 93.34 180.33 76.91 168.25 84.4 178.74 100.83 190.83 93.34"/><path class="cls-9" d="M178.59,101.52l-11-17.28,12.94-8,11,17.27Zm-9.65-17,10,15.59,11.23-7L180.18,77.6Z"/><polygon class="cls-12" points="135.21 104.87 145.71 121.3 156.54 114.59 146.04 98.16 135.21 104.87"/><path class="cls-9" d="M145.55,122l-11-17.27,11.68-7.24,11,17.28Zm-9.64-17,10,15.58,10-6.18-10-15.59Z"/><polygon class="cls-12" points="157.58 91.01 146.04 98.16 156.54 114.59 168.07 107.44 157.58 91.01"/><path class="cls-9" d="M156.38,115.27,145.35,98l12.38-7.67,11,17.27Zm-9.64-17,9.95,15.59,10.69-6.62-10-15.58Z"/><polygon class="cls-12" points="178.74 100.83 168.25 84.4 157.58 91.01 168.07 107.44 178.74 100.83"/><path class="cls-9" d="M167.92,108.13l-11-17.28,11.52-7.13,11,17.27Zm-9.65-17,10,15.59,9.82-6.09-10-15.59Z"/><polygon class="cls-13" points="153.76 159.93 164.25 176.36 176.17 168.98 165.68 152.55 153.76 159.93"/><path class="cls-9" d="M164.25,176.86a.49.49,0,0,1-.42-.23L153.34,160.2a.47.47,0,0,1-.07-.38.55.55,0,0,1,.22-.32l11.92-7.38a.51.51,0,0,1,.69.16l10.49,16.43a.51.51,0,0,1,.07.38.48.48,0,0,1-.23.31l-11.92,7.39A.48.48,0,0,1,164.25,176.86Zm-9.8-16.77,10,15.59,11.06-6.86-9.95-15.59Z"/><polygon class="cls-13" points="130.66 174.24 141.16 190.67 152.93 183.38 142.43 166.95 130.66 174.24"/><path class="cls-9" d="M141.16,191.17a.51.51,0,0,1-.43-.23l-10.49-16.43a.51.51,0,0,1-.07-.38.53.53,0,0,1,.23-.32l11.77-7.29a.5.5,0,0,1,.68.16l10.5,16.43a.51.51,0,0,1-.16.69l-11.77,7.3A.48.48,0,0,1,141.16,191.17Zm-9.81-16.77,10,15.59,10.92-6.77-9.95-15.59Z"/><polygon class="cls-13" points="142.43 166.95 152.93 183.38 164.25 176.36 153.76 159.93 142.43 166.95"/><path class="cls-9" d="M152.93,183.88a.51.51,0,0,1-.43-.23L142,167.22a.57.57,0,0,1-.07-.38.51.51,0,0,1,.23-.32l11.32-7a.51.51,0,0,1,.69.16l10.49,16.43a.52.52,0,0,1,.07.38.5.5,0,0,1-.23.32l-11.32,7A.5.5,0,0,1,152.93,183.88Zm-9.8-16.78,10,15.59,10.48-6.49-10-15.59Z"/><polygon class="cls-13" points="221.29 141.02 210.79 124.59 198.71 132.08 209.2 148.51 221.29 141.02"/><path class="cls-9" d="M209.2,149a.51.51,0,0,1-.42-.23l-10.49-16.43a.47.47,0,0,1-.07-.38.5.5,0,0,1,.23-.32l12.08-7.48a.49.49,0,0,1,.68.15l10.5,16.44a.5.5,0,0,1,.06.38.47.47,0,0,1-.22.31l-12.08,7.49A.54.54,0,0,1,209.2,149Zm-9.8-16.77,10,15.59,11.23-7-10-15.59Z"/><polygon class="cls-13" points="165.68 152.55 176.17 168.98 187 162.27 176.51 145.84 165.68 152.55"/><path class="cls-9" d="M176.17,169.48a.48.48,0,0,1-.42-.23l-10.5-16.44a.48.48,0,0,1-.06-.37.5.5,0,0,1,.22-.32l10.83-6.71a.51.51,0,0,1,.69.16L187.42,162a.51.51,0,0,1,.07.38.48.48,0,0,1-.23.31l-10.83,6.71A.5.5,0,0,1,176.17,169.48Zm-9.8-16.78,9.95,15.59,10-6.18-10-15.59Z"/><polygon class="cls-13" points="188.04 138.69 176.51 145.84 187 162.27 198.53 155.12 188.04 138.69"/><path class="cls-9" d="M187,162.77a.48.48,0,0,1-.42-.23l-10.5-16.44a.51.51,0,0,1,.16-.69l11.54-7.14a.49.49,0,0,1,.68.15L199,154.85a.47.47,0,0,1,.07.38.52.52,0,0,1-.22.32l-11.54,7.14A.5.5,0,0,1,187,162.77ZM177.2,146l10,15.59L197.84,155l-10-15.59Z"/><polygon class="cls-13" points="209.2 148.51 198.71 132.08 188.04 138.69 198.53 155.12 209.2 148.51"/><path class="cls-9" d="M198.53,155.62a.51.51,0,0,1-.42-.23L187.62,139a.51.51,0,0,1-.07-.38.48.48,0,0,1,.23-.31l10.67-6.62a.5.5,0,0,1,.68.16l10.49,16.43a.47.47,0,0,1,.07.38.52.52,0,0,1-.22.32l-10.67,6.61A.54.54,0,0,1,198.53,155.62Zm-9.8-16.77,10,15.59,9.82-6.09-10-15.59Z"/><polygon class="cls-14" points="185.79 128.54 205.58 116.43 190.83 93.33 171.1 105.55 185.79 128.54"/><path class="cls-9" d="M185.63,129.22,170.41,105.4,191,92.65l15.29,23.94ZM171.8,105.71l14.14,22.15,18.94-11.59L190.67,94Z"/><polyline class="cls-14" points="195.57 122.55 191.53 116.23 201.5 110.05"/><polygon class="cls-9" points="195.15 122.82 190.84 116.07 201.24 109.63 201.77 110.48 192.23 116.39 195.99 122.28 195.15 122.82"/><polyline class="cls-14" points="189.34 99.57 196.04 110.08 180.25 119.87"/><polygon class="cls-9" points="180.51 120.29 179.98 119.44 195.35 109.92 188.91 99.84 189.76 99.3 196.74 110.23 180.51 120.29"/><polygon class="cls-15" points="221.29 141.02 206.03 150.48 214.09 162.98 229.02 153.73 221.29 141.02"/><path class="cls-9" d="M214.09,163.48a.53.53,0,0,1-.42-.23l-8.06-12.5a.47.47,0,0,1-.07-.38.52.52,0,0,1,.22-.32L221,140.6a.51.51,0,0,1,.38-.06.5.5,0,0,1,.31.22l7.74,12.71a.49.49,0,0,1-.17.68l-14.93,9.25A.5.5,0,0,1,214.09,163.48Zm-7.37-12.84,7.53,11.65,14.08-8.73-7.21-11.85Z"/><polygon class="cls-15" points="236.58 166.16 229.02 153.73 214.09 162.98 221.98 175.21 230.41 169.98 236.58 166.16"/><path class="cls-9" d="M222,175.71a.53.53,0,0,1-.42-.23l-7.89-12.23a.52.52,0,0,1-.07-.38.48.48,0,0,1,.23-.32l14.93-9.25a.49.49,0,0,1,.37-.06.5.5,0,0,1,.32.23L237,165.9a.5.5,0,0,1-.16.68l-14.6,9A.56.56,0,0,1,222,175.71Zm-7.19-12.58,7.35,11.39L235.9,166l-7.05-11.58Z"/><polygon class="cls-15" points="230.41 169.98 221.98 175.21 221.98 175.21 230.41 169.98"/><path class="cls-9" d="M222,175.71a.5.5,0,0,1-.42-.24.5.5,0,0,1-.08-.26.51.51,0,0,1,.24-.43l8.43-5.22a.49.49,0,0,1,.69.16.48.48,0,0,1,.07.26.5.5,0,0,1-.24.43l-8.42,5.22A.56.56,0,0,1,222,175.71Z"/><path class="cls-16" d="M189,44.26a2.74,2.74,0,0,1,2.74-2.74V36.28h-14.1v3.6L187,42.14v3.94l-9.36,2.39v3.76h14.1V47A2.74,2.74,0,0,1,189,44.26Z"/><path class="cls-9" d="M192.24,52.73h-15.1V48.08l9.36-2.39V42.53l-9.36-2.25v-4.5h15.1V42h-.5a2.24,2.24,0,1,0,0,4.47h.5Zm-14.1-1h13.1V47.45a3.23,3.23,0,0,1,0-6.39V36.78h-13.1v2.71l9.36,2.25v4.73l-9.36,2.39Z"/><path class="cls-16" d="M191.74,36.28v5.24a2.74,2.74,0,0,1,0,5.47v5.24h14.09V48.47l-9.35-2.25V42.28l9.35-2.4v-3.6Z"/><path class="cls-9" d="M206.33,52.73H191.24V46.49h.5a2.24,2.24,0,0,0,0-4.47h-.5V35.78h15.09v4.49L197,42.67v3.16l9.35,2.25Zm-14.09-1h13.09V48.87L196,46.61V41.89l9.35-2.39V36.78H192.24v4.28a3.23,3.23,0,0,1,0,6.39Z"/><polygon class="cls-16" points="187 42.14 177.64 39.88 177.64 48.47 187 46.08 187 42.14"/><path class="cls-9" d="M177.14,49.12V39.25l10.36,2.49v4.73Zm1-8.6v7.31l8.36-2.14V42.53Z"/><polygon class="cls-16" points="196.48 46.22 205.83 48.47 205.83 39.88 196.48 42.28 196.48 46.22"/><path class="cls-9" d="M206.33,49.11,196,46.61V41.89l10.35-2.65ZM197,45.83l8.35,2V40.53L197,42.67Z"/><path class="cls-16" d="M194.47,44.26a2.74,2.74,0,0,0-2.73-2.74V47A2.73,2.73,0,0,0,194.47,44.26Z"/><path class="cls-9" d="M191.74,47.49h-.5V41h.5a3.24,3.24,0,0,1,0,6.47Zm.5-5.41v4.36a2.24,2.24,0,0,0,0-4.36Z"/><path class="cls-16" d="M189,44.26A2.74,2.74,0,0,0,191.74,47V41.52A2.74,2.74,0,0,0,189,44.26Z"/><path class="cls-9" d="M192.24,47.49h-.5a3.24,3.24,0,1,1,0-6.47h.5Zm-1-5.41a2.24,2.24,0,0,0,0,4.36Z"/><path class="cls-16" d="M191.74,59.44a2.74,2.74,0,0,1,0,5.47v5.24h14.09V66.39l-9.35-2.25V60.2l9.35-2.39V54.2H191.74Z"/><path class="cls-9" d="M206.33,70.65H191.24V64.41h.5a2.24,2.24,0,0,0,0-4.47h-.5V53.71h15.09v4.48L197,60.59v3.16L206.33,66Zm-14.09-1h13.09V66.79L196,64.54V59.81l9.35-2.39V54.71H192.24V59a3.24,3.24,0,0,1,0,6.4Z"/><path class="cls-16" d="M189,62.18a2.74,2.74,0,0,1,2.74-2.74V54.2h-14.1v3.61L187,60.06V64l-9.36,2.39v3.76h14.1V64.91A2.74,2.74,0,0,1,189,62.18Z"/><path class="cls-9" d="M192.24,70.65h-15.1V66l9.36-2.4V60.45l-9.36-2.25V53.71h15.1v6.23h-.5a2.24,2.24,0,1,0,0,4.47h.5Zm-14.1-1h13.1V65.38a3.24,3.24,0,0,1,0-6.4V54.71h-13.1v2.7l9.36,2.26v4.72l-9.36,2.39Z"/><polygon class="cls-16" points="187 60.06 177.64 57.81 177.64 66.39 187 64 187 60.06"/><path class="cls-9" d="M177.14,67V57.17l10.36,2.5v4.72Zm1-8.6v7.31l8.36-2.14V60.45Z"/><polygon class="cls-16" points="196.48 64.14 205.83 66.39 205.83 57.81 196.48 60.2 196.48 64.14"/><path class="cls-9" d="M206.33,67,196,64.54V59.81l10.35-2.65ZM197,63.75l8.35,2V58.45L197,60.59Z"/><path class="cls-16" d="M194.47,62.18a2.74,2.74,0,0,0-2.73-2.74v5.47A2.73,2.73,0,0,0,194.47,62.18Z"/><path class="cls-9" d="M191.74,65.41h-.5V58.94h.5a3.24,3.24,0,0,1,0,6.47Zm.5-5.41v4.36a2.24,2.24,0,0,0,0-4.36Z"/><path class="cls-16" d="M189,62.18a2.74,2.74,0,0,0,2.74,2.73V59.44A2.74,2.74,0,0,0,189,62.18Z"/><path class="cls-9" d="M192.24,65.41h-.5a3.24,3.24,0,1,1,0-6.47h.5Zm-1-5.41a2.24,2.24,0,0,0,0,4.36Z"/><rect class="cls-17" x="226.2" y="111.05" width="115.59" height="19.01"/><path class="cls-9" d="M342.29,130.56H225.7v-20H342.29Zm-115.59-1H341.29v-18H226.7Z"/><rect class="cls-11" x="394.44" y="75.22" width="38.57" height="24.35"/><path class="cls-9" d="M433.52,100.07H393.94V74.72h39.58Zm-38.58-1h37.58V75.72H394.94Z"/><rect class="cls-11" x="396.13" y="54.2" width="25.06" height="18.2"/><path class="cls-9" d="M421.69,72.9H395.63V53.71h26.06Zm-25.06-1h24.06V54.71H396.63Z"/><rect class="cls-11" x="220.16" y="85.92" width="27.03" height="14.91"/><path class="cls-9" d="M247.69,101.33h-28V85.42h28Zm-27-1h26V86.42h-26Z"/><path class="cls-18" d="M285.34,39.88H269.15V82h16.19a6.35,6.35,0,0,0,6.35-6.36v-7.4H280.51a8,8,0,0,1,0-16h11.18v-6A6.35,6.35,0,0,0,285.34,39.88Z"/><path class="cls-9" d="M285.33,82.48H268.65V39.38h16.68a6.86,6.86,0,0,1,6.86,6.86v6.49H280.51a7.5,7.5,0,0,0,0,15h11.68v7.9A6.86,6.86,0,0,1,285.33,82.48Zm-15.68-1h15.68a5.87,5.87,0,0,0,5.86-5.86v-6.9H280.51a8.5,8.5,0,0,1,0-17h10.68V46.24a5.87,5.87,0,0,0-5.86-5.86H269.65Z"/><path class="cls-18" d="M224.18,39.88a6.36,6.36,0,0,0-6.36,6.36v6H229a8,8,0,1,1,0,16H217.82v7.4A6.36,6.36,0,0,0,224.18,82h16.67V39.88Z"/><path class="cls-9" d="M241.35,82.48H224.18a6.87,6.87,0,0,1-6.86-6.86v-7.9H229a7.5,7.5,0,1,0,0-15H217.32V46.24a6.87,6.87,0,0,1,6.86-6.86h17.17Zm-23-13.76v6.9a5.87,5.87,0,0,0,5.86,5.86h16.17V40.38H224.18a5.87,5.87,0,0,0-5.86,5.86v5.49H229a8.5,8.5,0,1,1,0,17Z"/><path class="cls-18" d="M237,60.23a8,8,0,0,0-8-8H217.82v16H229A8,8,0,0,0,237,60.23Z"/><path class="cls-9" d="M229,68.72H217.32v-17H229a8.5,8.5,0,1,1,0,17Zm-10.68-1H229a7.5,7.5,0,1,0,0-15H218.32Z"/><path class="cls-18" d="M272.52,60.23a8,8,0,0,0,8,8h11.18v-16H280.51A8,8,0,0,0,272.52,60.23Z"/><path class="cls-9" d="M292.19,68.72H280.51a8.5,8.5,0,0,1,0-17h11.68Zm-11.68-16a7.5,7.5,0,0,0,0,15h10.68v-15Z"/><path class="cls-18" d="M248,81.84V78.76A6.78,6.78,0,0,1,254.76,72h0V67.24a7,7,0,1,1,0-14V49.74h0A6.78,6.78,0,0,1,248,43V39.88h-7.13V82h13.91v-.14Z"/><path class="cls-9" d="M255.26,82.48H240.35V39.38h8.13V43a6.29,6.29,0,0,0,6.28,6.27h.5v4.47h-.5a6.52,6.52,0,1,0,0,13h.5v5.74h-.5a6.28,6.28,0,0,0-6.28,6.27v2.58h6.78Zm-13.91-1h6.13V78.76a7.29,7.29,0,0,1,6.78-7.26V67.73a7.52,7.52,0,0,1,0-15v-2.5A7.28,7.28,0,0,1,247.48,43V40.38h-6.13Z"/><path class="cls-18" d="M254.76,49.74h0V39.88H248V43A6.78,6.78,0,0,0,254.76,49.74Z"/><path class="cls-9" d="M255.26,50.24h-.5A7.29,7.29,0,0,1,247.48,43V39.38h7.78Zm-6.78-9.86V43a6.29,6.29,0,0,0,5.78,6.25V40.38Z"/><path class="cls-18" d="M248,78.76v3.08h6.78V72h0A6.78,6.78,0,0,0,248,78.76Z"/><path class="cls-9" d="M255.26,82.34h-7.78V78.76a7.29,7.29,0,0,1,7.28-7.27h.5Zm-6.78-1h5.78V72.51a6.28,6.28,0,0,0-5.78,6.25Z"/><path class="cls-18" d="M247.74,60.23a7,7,0,0,0,7,7v-14A7,7,0,0,0,247.74,60.23Z"/><path class="cls-9" d="M255.26,67.75h-.5a7.52,7.52,0,1,1,0-15h.5Zm-1-14a6.52,6.52,0,0,0,0,13Z"/><path class="cls-18" d="M261.53,39.88V43a6.77,6.77,0,0,1-6.77,6.77v3.47a7,7,0,1,1,0,14V72a6.77,6.77,0,0,1,6.77,6.77v3.08h-6.77V82h14.39V39.88Z"/><path class="cls-9" d="M269.65,82.48H254.26V81.34H261V78.76a6.27,6.27,0,0,0-6.27-6.27h-.5V66.75h.5a6.52,6.52,0,0,0,0-13h-.5V49.24h.5A6.28,6.28,0,0,0,261,43V39.38h8.62Zm-7.62-1h6.62V40.38H262V43a7.28,7.28,0,0,1-6.77,7.25v2.5a7.52,7.52,0,0,1,0,15V71.5A7.29,7.29,0,0,1,262,78.76Z"/><path class="cls-18" d="M261.53,43V39.88h-6.77v9.86A6.77,6.77,0,0,0,261.53,43Z"/><path class="cls-9" d="M254.76,50.24h-.5V39.38H262V43A7.28,7.28,0,0,1,254.76,50.24Zm.5-9.86v8.84A6.28,6.28,0,0,0,261,43V40.38Z"/><path class="cls-18" d="M261.53,81.84V78.76A6.77,6.77,0,0,0,254.76,72v9.85Z"/><path class="cls-9" d="M262,82.34h-7.77V71.49h.5A7.28,7.28,0,0,1,262,78.76Zm-6.77-1H261V78.76a6.28,6.28,0,0,0-5.77-6.25Z"/><path class="cls-18" d="M261.78,60.23a7,7,0,0,0-7-7v14A7,7,0,0,0,261.78,60.23Z"/><path class="cls-9" d="M254.76,67.75h-.5v-15h.5a7.52,7.52,0,0,1,0,15Zm.5-14v13a6.52,6.52,0,0,0,0-13Z"/><polygon class="cls-19" points="227.41 135.28 327.87 135.28 254.76 180.51 227.41 135.28"/><polygon class="cls-20" points="285.61 182.35 279.57 172.89 270.08 178.79 276.11 188.23 285.61 182.35"/><path class="cls-9" d="M276,188.92l-6.57-10.29,10.34-6.43,6.58,10.31Zm-5.18-10,5.49,8.6,8.65-5.36-5.5-8.62Z"/><polygon class="cls-20" points="319.89 161.11 313.81 151.59 303.38 158.08 309.44 167.58 319.89 161.11"/><path class="cls-9" d="M309.29,168.27l-6.61-10.34,11.29-7,6.61,10.36Zm-5.22-10,5.53,8.66,9.6-6-5.54-8.67Z"/><polygon class="cls-20" points="299 174.06 292.94 164.57 289.06 166.99 295.12 176.46 299 174.06"/><path class="cls-9" d="M295,177.15l-6.59-10.32,4.73-2.94,6.59,10.32Zm-5.2-10,5.51,8.64,3-1.88-5.51-8.64Z"/><polygon class="cls-20" points="329.87 154.93 323.78 145.39 313.81 151.59 319.89 161.11 329.87 154.93"/><path class="cls-9" d="M319.73,161.8l-6.61-10.36,10.82-6.73,6.62,10.38Zm-5.22-10.05,5.54,8.68,9.13-5.66-5.55-8.69Z"/><polygon class="cls-20" points="309.44 167.58 303.38 158.08 292.94 164.57 299 174.06 309.44 167.58"/><path class="cls-9" d="M298.84,174.74l-6.59-10.32,11.28-7,6.61,10.34Zm-5.2-10,5.51,8.64,9.6-5.94-5.53-8.66Z"/><polygon class="cls-20" points="339.75 148.81 333.65 139.25 323.78 145.39 329.87 154.93 339.75 148.81"/><path class="cls-9" d="M329.71,155.61l-6.62-10.37,10.72-6.67L340.45,149Zm-5.23-10.06,5.55,8.69,9-5.59-5.56-8.71Z"/><polygon class="cls-20" points="339.75 148.81 346.63 159.57 357.56 152.8 350.69 142.03 339.75 148.81"/><path class="cls-9" d="M346.47,160.26l-7.41-11.61,11.78-7.3L358.26,153Zm-6-11.3,6.33,9.93,10.09-6.25-6.34-9.92Z"/><polygon class="cls-20" points="329.87 154.93 336.75 165.69 346.63 159.57 339.75 148.81 329.87 154.93"/><path class="cls-9" d="M336.59,166.38l-7.41-11.61,10.73-6.65,7.41,11.61Zm-6-11.29L336.9,165l9-5.59-6.33-9.93Z"/><polygon class="cls-20" points="285.75 182.26 295.12 176.46 289.06 166.99 279.57 172.89 285.61 182.35 285.75 182.26"/><path class="cls-9" d="M285.46,183l-6.58-10.3,10.34-6.43,6.59,10.32Zm-5.19-10,5.5,8.61,8.65-5.36-5.51-8.63Z"/><polygon class="cls-20" points="285.75 182.26 285.61 182.35 292.49 193.11 301.99 187.22 295.12 176.46 285.75 182.26"/><path class="cls-9" d="M292.33,193.79l-7.41-11.6,10.35-6.41,7.41,11.6Zm-6-11.28,6.33,9.91,8.65-5.36L295,177.15Z"/><polygon class="cls-20" points="276.11 188.23 270.08 178.79 260.59 184.69 266.61 194.12 276.11 188.23"/><path class="cls-9" d="M266.46,194.8l-6.56-10.27,10.34-6.43,6.57,10.29Zm-5.17-10,5.48,8.59,8.65-5.36-5.49-8.6Z"/><polygon class="cls-20" points="299 174.06 305.87 184.82 316.32 178.35 309.44 167.58 299 174.06"/><path class="cls-9" d="M305.71,185.5l-7.41-11.6,11.3-7L317,178.5Zm-6-11.29,6.34,9.92,9.59-5.94-6.33-9.92Z"/><polygon class="cls-20" points="319.89 161.11 326.76 171.88 336.75 165.69 329.87 154.93 319.89 161.11"/><path class="cls-9" d="M326.61,172.56,319.2,161,330,154.24l7.41,11.61Zm-6-11.29,6.34,9.92,9.13-5.65-6.34-9.93Z"/><polygon class="cls-20" points="309.44 167.58 316.32 178.35 326.76 171.88 319.89 161.11 309.44 167.58"/><path class="cls-9" d="M316.16,179l-7.41-11.6,11.3-7,7.41,11.6Zm-6-11.29,6.33,9.92,9.6-5.94-6.34-9.92Z"/><polygon class="cls-20" points="295.12 176.46 301.99 187.22 305.87 184.82 299 174.06 295.12 176.46"/><path class="cls-9" d="M301.83,187.91l-7.41-11.61,4.73-2.93L306.56,185Zm-6-11.29,6.33,9.92,3-1.88-6.34-9.92Z"/><polygon class="cls-20" points="276.11 188.23 282.98 198.99 292.49 193.11 285.61 182.35 276.11 188.23"/><path class="cls-9" d="M282.83,199.68l-7.41-11.6,10.35-6.42,7.41,11.61Zm-6-11.29,6.33,9.92,8.65-5.36L285.46,183Z"/><polygon class="cls-20" points="266.61 194.12 273.48 204.88 282.98 198.99 276.11 188.23 266.61 194.12"/><path class="cls-9" d="M273.33,205.56,265.92,194l10.35-6.41,7.41,11.6Zm-6-11.28,6.33,9.91,8.65-5.36L276,188.92Z"/><polygon class="cls-20" points="354.35 135.83 352.35 132.69 344.69 132.39 344.67 132.39 336.75 132.08 339.22 135.76 339.24 135.78 333.65 139.25 339.75 148.81 350.69 142.03 356.15 138.65 354.35 135.83"/><path class="cls-9" d="M339.6,149.49,333,139.1l5.57-3.47-2.75-4.09,16.85.66,4.22,6.6Zm-5.25-10.08,5.56,8.71,15.55-9.63-3.4-5.31-14.35-.56,2.22,3.3-.43.29Z"/><polygon class="cls-21" points="211.01 220.5 195.97 201.26 241.25 173.21 255.07 188.13 225.52 234.58 211.01 220.5"/><path class="cls-9" d="M225.52,235.08a.52.52,0,0,1-.35-.14l-14.51-14.08,0-.05-15-19.24a.48.48,0,0,1-.1-.4.47.47,0,0,1,.23-.34L241,172.78a.5.5,0,0,1,.63.09l13.83,14.92a.48.48,0,0,1,.05.6l-29.55,46.46a.49.49,0,0,1-.36.23Zm-14.14-14.91,14.05,13.63,29-45.62-13.28-14.33-44.45,27.54Z"/><polygon class="cls-21" points="260.59 184.69 255.07 188.13 241.27 209.82 225.52 234.58 273.48 204.88 266.61 194.12 260.59 184.69"/><path class="cls-9" d="M225.52,235.08a.47.47,0,0,1-.35-.15.49.49,0,0,1-.07-.62l29.55-46.45a.41.41,0,0,1,.16-.16l5.52-3.43a.49.49,0,0,1,.68.15l12.89,20.19a.47.47,0,0,1,.07.38.5.5,0,0,1-.22.31l-48,29.71A.48.48,0,0,1,225.52,235.08Zm29.91-46.59L227.12,233l45.67-28.29-12.35-19.34Z"/><rect class="cls-22" x="366.29" y="67.24" width="25.06" height="20.15"/><path class="cls-9" d="M391.85,87.9H365.79V66.75h26.06Zm-25.06-1h24.06V67.75H366.79Z"/><rect class="cls-22" x="366.29" y="87.4" width="25.06" height="27.19"/><path class="cls-9" d="M391.85,115.09H365.79V86.9h26.06Zm-25.06-1h24.06V87.9H366.79Z"/><rect class="cls-22" x="366.29" y="45.3" width="25.06" height="21.95"/><path class="cls-9" d="M391.85,67.75H365.79v-23h26.06Zm-25.06-1h24.06v-21H366.79Z"/><rect class="cls-11" x="300.97" y="51.73" height="8.59"/><rect class="cls-9" x="300.47" y="51.73" width="1" height="8.59"/><path class="cls-11" d="M328.81,43.52h-8.7v25h8.7a25.69,25.69,0,0,1-3-12.5A25.69,25.69,0,0,1,328.81,43.52Z"/><path class="cls-9" d="M329.67,69H319.61V43h10.06l-.42.75A25.13,25.13,0,0,0,326.34,56a25.19,25.19,0,0,0,2.91,12.26Zm-9.06-1H328a26.84,26.84,0,0,1-2.63-12A26.84,26.84,0,0,1,328,44h-7.36Z"/><path class="cls-11" d="M311.77,43.52a25.55,25.55,0,0,1,3.07,12.67A25.85,25.85,0,0,1,312,68.52h8.15v-25Z"/><path class="cls-9" d="M320.61,69h-9.5l.41-.74a25.34,25.34,0,0,0,2.82-12.09,25,25,0,0,0-3-12.42L310.9,43h9.71Zm-7.82-1h6.82V44h-7a26.62,26.62,0,0,1,2.72,12.17A26.94,26.94,0,0,1,312.79,68Z"/><path class="cls-11" d="M311.77,43.52H301v8.21l9.24,1.74h0a2.51,2.51,0,0,1,0,5h0L301,60.31v8.21h11a25.85,25.85,0,0,0,2.88-12.33A25.55,25.55,0,0,0,311.77,43.52Z"/><path class="cls-9" d="M312.25,69H300.47V59.91l9.66-2a2,2,0,0,0,0-4l-.42-.09-9.24-1.75V43h11.59l.15.25a26,26,0,0,1,3.13,12.92,26.53,26.53,0,0,1-2.94,12.58Zm-10.78-1h10.19a25.55,25.55,0,0,0,2.68-11.83A25.16,25.16,0,0,0,311.48,44h-10v7.29l9.24,1.77a3,3,0,0,1,0,5.76h0l-.41.09-8.83,1.78Z"/><path class="cls-11" d="M312.35,56a2.52,2.52,0,0,0-2.14-2.48v5A2.5,2.5,0,0,0,312.35,56Z"/><path class="cls-9" d="M309.71,59V52.9l.57.09a3,3,0,0,1,0,5.95Zm1-4.87v3.63a2,2,0,0,0,0-3.63Z"/><path class="cls-11" d="M310.21,58.44a2.45,2.45,0,0,1-.38,0,2.52,2.52,0,0,1,0-5c.13,0,.25,0,.38,0h0L301,51.73v8.58l9.24-1.86Z"/><path class="cls-9" d="M300.47,60.93V51.12l10.24,1.94v1l-.58-.07-.3,0a2,2,0,0,0,0,4,1.27,1.27,0,0,0,.28,0l.57-.08,0,1Zm1-8.6V59.7L308,58.38a3,3,0,0,1,0-4.81Zm8.74,6.11.07.5Z"/><path class="cls-11" d="M307.32,56a2.51,2.51,0,0,0,2.51,2.52,2.45,2.45,0,0,0,.38,0v-5c-.13,0-.25,0-.38,0A2.51,2.51,0,0,0,307.32,56Z"/><path class="cls-9" d="M309.83,59a3,3,0,0,1,0-6,1.93,1.93,0,0,1,.42,0l.43.06,0,.43v5.4l-.43.06A3.75,3.75,0,0,1,309.83,59Zm-.12-5a2,2,0,0,0,0,4Z"/><path class="cls-11" d="M328.81,43.52a25.69,25.69,0,0,0-3,12.5,25.69,25.69,0,0,0,3,12.5h10.45v-25Zm10.45,16.74L330,58.51h0a2.51,2.51,0,0,1,0-5h0l9.24-1.86Z"/><path class="cls-9" d="M339.76,69H328.52l-.14-.25a26.24,26.24,0,0,1-3-12.75,26.24,26.24,0,0,1,3-12.75l.14-.25h11.24Zm-10.65-1h9.65V60.67l-9.24-1.77a3,3,0,0,1,0-5.76h0l.4-.09,8.84-1.78V44h-9.65a25.37,25.37,0,0,0-2.77,12A25.34,25.34,0,0,0,329.11,68Zm1.41-9.92,8.24,1.55V52.28L330.09,54a2,2,0,0,0,0,4Z"/><path class="cls-11" d="M327.87,56A2.52,2.52,0,0,0,330,58.5v-5A2.52,2.52,0,0,0,327.87,56Z"/><path class="cls-9" d="M330.52,59.08l-.58-.08a3,3,0,0,1,0-6l.58-.09Zm-1-4.87a2,2,0,0,0,0,3.62Z"/><path class="cls-11" d="M330,53.54a2.21,2.21,0,0,1,.37,0,2.52,2.52,0,1,1,0,5,2.21,2.21,0,0,1-.37,0h0l9.24,1.75V51.67L330,53.53Z"/><path class="cls-9" d="M339.76,60.86l-10.24-1.93v-1l.57.08.3,0a2,2,0,1,0,0-4l-.27,0-.58.09,0-1,10.24-2.06Zm-7.54-2.44,6.54,1.23V52.28l-6.57,1.32a3,3,0,0,1,0,4.82Zm-2.28-5.37.08.49Z"/><path class="cls-11" d="M332.91,56a2.52,2.52,0,0,0-2.52-2.52,2.21,2.21,0,0,0-.37,0v5a2.21,2.21,0,0,0,.37,0A2.52,2.52,0,0,0,332.91,56Z"/><path class="cls-9" d="M330.39,59a3,3,0,0,1-.42,0l-.43-.06,0-.44V53.11l.42-.06a2.58,2.58,0,0,1,.45,0,3,3,0,1,1,0,6Zm.13-5v4a2,2,0,0,0,0-4Z"/><rect class="cls-11" x="300.97" y="80.63" height="8.59"/><rect class="cls-9" x="300.47" y="80.63" width="1" height="8.59"/><path class="cls-11" d="M328.81,72.42h-17a25.49,25.49,0,0,1,3.07,12.67A25.88,25.88,0,0,1,312,97.42h8.15v0h8.7a25.69,25.69,0,0,1-3-12.5A25.69,25.69,0,0,1,328.81,72.42Z"/><path class="cls-9" d="M329.67,97.92H311.11l.41-.74a25.37,25.37,0,0,0,2.82-12.09,25,25,0,0,0-3-12.42l-.44-.75h18.77l-.42.74a25.19,25.19,0,0,0-2.91,12.26,25.15,25.15,0,0,0,2.91,12.25Zm-9.06-1H328a28.69,28.69,0,0,1,0-24h-7.36Zm-7.82,0h6.82v-24h-7a26.59,26.59,0,0,1,2.72,12.17A27,27,0,0,1,312.79,96.92Z"/><path class="cls-11" d="M311.77,72.42H301v8.21l9.24,1.74h0a2.51,2.51,0,0,1,0,5h0L301,89.21v8.21h11a25.88,25.88,0,0,0,2.88-12.33A25.49,25.49,0,0,0,311.77,72.42Z"/><path class="cls-9" d="M312.25,97.92H300.47V88.8l9.66-2a2,2,0,0,0,0-4l-.42-.09L300.47,81V71.92h11.59l.15.24a26.1,26.1,0,0,1,3.13,12.93,26.46,26.46,0,0,1-2.94,12.57Zm-10.78-1h10.19a25.58,25.58,0,0,0,2.68-11.83,25.16,25.16,0,0,0-2.86-12.17h-10v7.29L310.71,82a3,3,0,0,1,0,5.76h0l-.41.09-8.83,1.78Z"/><path class="cls-11" d="M312.35,84.86a2.51,2.51,0,0,0-2.14-2.48v5A2.5,2.5,0,0,0,312.35,84.86Z"/><path class="cls-9" d="M309.71,87.92V81.8l.57.09a3,3,0,0,1,0,6Zm1-4.87v3.62a2,2,0,0,0,0-3.62Z"/><path class="cls-11" d="M310.21,87.34a2.45,2.45,0,0,1-.38,0,2.52,2.52,0,0,1,0-5,2.45,2.45,0,0,1,.38,0h0L301,80.63v8.58l9.24-1.86Z"/><path class="cls-9" d="M300.47,89.82V80L310.71,82v1l-.58-.07a1.65,1.65,0,0,0-.3,0,2,2,0,0,0,0,4,1.27,1.27,0,0,0,.28,0l.57-.08,0,1Zm1-8.59V88.6L308,87.28a3,3,0,0,1-1.21-2.42,3,3,0,0,1,1.18-2.4Zm8.74,6.11.07.5Z"/><path class="cls-11" d="M307.32,84.86a2.51,2.51,0,0,0,2.51,2.52,2.45,2.45,0,0,0,.38,0v-5a2.45,2.45,0,0,0-.38,0A2.51,2.51,0,0,0,307.32,84.86Z"/><path class="cls-9" d="M309.83,87.88a3,3,0,0,1,0-6,2.72,2.72,0,0,1,.42,0l.43.07,0,.43v5.39l-.43.07A3.58,3.58,0,0,1,309.83,87.88Zm-.12-5a2,2,0,0,0,0,4Z"/><path class="cls-11" d="M328.81,72.42a25.69,25.69,0,0,0-3,12.5,25.69,25.69,0,0,0,3,12.5h10.45v-25Zm10.45,16.74L330,87.41h0a2.51,2.51,0,0,1,0-5h0l9.24-1.86Z"/><path class="cls-9" d="M339.76,97.92H328.52l-.14-.25a26.24,26.24,0,0,1-3-12.75,26.21,26.21,0,0,1,3-12.75l.14-.25h11.24Zm-10.65-1h9.65V89.57l-9.24-1.77a3,3,0,0,1,0-5.76h0l.4-.09,8.84-1.78V72.92h-9.65a25.34,25.34,0,0,0-2.77,12A25.37,25.37,0,0,0,329.11,96.92ZM330.52,87l8.24,1.56V81.18l-8.67,1.75a2,2,0,0,0,0,4Z"/><path class="cls-11" d="M327.87,84.92A2.52,2.52,0,0,0,330,87.4v-5A2.52,2.52,0,0,0,327.87,84.92Z"/><path class="cls-9" d="M330.52,88l-.58-.09a3,3,0,0,1,0-6l.58-.08Zm-1-4.87a2,2,0,0,0,0,3.62Z"/><path class="cls-11" d="M330,82.44a2.21,2.21,0,0,1,.37,0,2.52,2.52,0,1,1,0,5,2.21,2.21,0,0,1-.37,0h0l9.24,1.75V80.57L330,82.43Z"/><path class="cls-9" d="M339.76,89.76l-10.24-1.94v-1l.57.07a1.92,1.92,0,0,0,.3,0,2,2,0,1,0,0-4,2.48,2.48,0,0,0-.27,0l-.58.08,0-1L339.76,80Zm-7.54-2.44,6.54,1.23V81.18l-6.57,1.32a3,3,0,0,1,0,4.82Zm-2.28-5.38.08.5Z"/><path class="cls-11" d="M332.91,84.92a2.52,2.52,0,0,0-2.52-2.52,2.21,2.21,0,0,0-.37,0v5a2.21,2.21,0,0,0,.37,0A2.52,2.52,0,0,0,332.91,84.92Z"/><path class="cls-9" d="M330.39,87.94a3,3,0,0,1-.42,0l-.43-.07,0-.43V82l.42-.07a3.93,3.93,0,0,1,.45,0,3,3,0,1,1,0,6Zm.13-5v4a2,2,0,0,0,0-4Z"/><rect class="cls-9" x="233.17" y="85.92" width="1" height="14.91"/><rect class="cls-11" x="261.16" y="85.92" width="27.03" height="14.91"/><path class="cls-9" d="M288.69,101.33h-28V85.42h28Zm-27-1h26V86.42h-26Z"/><rect class="cls-9" x="274.17" y="85.92" width="1" height="14.91"/><polygon class="cls-9" points="60.2 282.6 60.13 281.61 176.34 272.37 60.1 257.76 60.23 256.77 186.14 272.6 60.2 282.6"/><path class="cls-9" d="M59,195.24A11.47,11.47,0,1,0,70.5,206.7,11.46,11.46,0,0,0,59,195.24Zm0,20a8.57,8.57,0,1,1,8.56-8.57A8.57,8.57,0,0,1,59,215.27Z"/><polygon class="cls-1" points="59.06 206.91 61.24 204.78 59.27 187.87 59.04 206.89 59.06 206.91"/><polygon class="cls-9" points="59.27 187.87 56.88 204.73 59.04 206.89 59.27 187.87"/><polygon class="cls-9" points="59.04 206.94 59.08 206.94 59.06 206.91 59.04 206.94"/><polygon class="cls-9" points="59.08 206.94 78.1 207.17 61.24 204.78 59.06 206.91 59.08 206.94"/><polygon class="cls-9" points="59.04 206.89 59.04 206.94 59.06 206.91 59.04 206.89"/><polygon class="cls-9" points="39.97 206.7 56.83 209.09 59.04 206.94 39.97 206.7"/><polygon class="cls-9" points="59.04 206.94 58.8 226 61.24 209.09 59.08 206.94 59.04 206.94"/><polygon class="cls-1" points="59.04 206.89 56.88 204.73 39.97 206.7 59.04 206.94 59.04 206.89"/><polygon class="cls-1" points="59.08 206.94 61.24 209.09 78.1 207.17 59.08 206.94"/><polygon class="cls-1" points="56.83 209.09 58.8 226 59.04 206.94 56.83 209.09"/><path class="cls-9" d="M29.71,209l5.11-4.14h-5v-1.16h7.28l.22.73-5.14,4.18h5v1.16H29.94Z"/><path class="cls-9" d="M62.48,311.18l-.13-1c47.88-6.19,159.34-20.5,160.5-19.94s5.48,10.21,7.29,14.32l-.92.4c-2.73-6.23-6-13-6.78-13.79C218.05,291.22,116.21,304.24,62.48,311.18Zm160.06-20Z"/><polygon class="cls-9" points="273.74 296.96 271.98 283.72 272.2 283.54 347.31 225.12 364.16 271.19 363.22 271.53 346.84 226.75 273.04 284.16 274.74 296.82 273.74 296.96"/><polygon class="cls-9" points="384.89 267.4 367.9 207.63 420.52 163.35 460.24 137.31 460.79 138.15 421.12 164.16 369.04 207.98 385.85 267.13 384.89 267.4"/><path class="cls-9" d="M41.46,55.66l1.24-.8.23.5-1.71,1.1L39.37,53.6l.53-.35Z"/><path class="cls-9" d="M44.47,50.3,45.58,52a1.29,1.29,0,0,1,.26,1.18,1.59,1.59,0,0,1-.67.8,1.28,1.28,0,0,1-2-.39L42,51.89l.54-.35,1.11,1.72c.21.33.38.47.61.49a1,1,0,0,0,.55-.16.78.78,0,0,0,.45-.65,1.08,1.08,0,0,0-.22-.58l-1.11-1.72Z"/><path class="cls-9" d="M45.69,49.53a7.46,7.46,0,0,1,.78-.56c.64-.42,1.2-.39,1.5.07a.77.77,0,0,1,0,.89.89.89,0,0,1,1.1.35c.34.52.1,1.11-.63,1.58a6.74,6.74,0,0,1-.89.5Zm1.3.87.41-.26a.56.56,0,0,0,.09-.68.53.53,0,0,0-.8-.1l-.26.18Zm.82,1.27a3,3,0,0,0,.39-.22c.36-.23.46-.53.29-.8a.57.57,0,0,0-.57-.25.93.93,0,0,0-.38.17l-.31.2Z"/><path class="cls-9" d="M53.36,74.88l1.24-.81.23.5-1.71,1.1-1.85-2.86.53-.35Z"/><path class="cls-9" d="M56.37,69.51l1.11,1.72a1.29,1.29,0,0,1,.26,1.18,1.65,1.65,0,0,1-.67.81,1.28,1.28,0,0,1-2-.4L53.91,71.1l.54-.35,1.11,1.72c.21.34.38.47.61.49a.85.85,0,0,0,.55-.16.78.78,0,0,0,.45-.65,1.08,1.08,0,0,0-.22-.58l-1.11-1.71Z"/><path class="cls-9" d="M58.91,69.62l1-.62.28.43-1,.62.78,1.2-.54.34-1.85-2.86,1.61-1,.29.43-1.08.7Z"/><path class="cls-9" d="M63.08,87.83,62,88.56l.19,1-.52.33L61,86.19l.41-.27,3.09,2.13-.56.37Zm-1.49-1.07.26,1.34.85-.54Z"/><path class="cls-9" d="M67.31,86.22l-1.92,1.24-.25-.23c.11-.4.17-.65.26-1.12a7.19,7.19,0,0,0,.11-.8,1,1,0,0,0-.11-.55.53.53,0,0,0-.78-.19.74.74,0,0,0-.29.44,1.47,1.47,0,0,0-.06.19L63.85,85a1.3,1.3,0,0,1,.13-.42,1.37,1.37,0,0,1,.44-.51,1,1,0,0,1,1.47.28c.29.43.26,1-.11,2.25l1.33-.86Z"/><path class="cls-9" d="M69.65,84.71l-.52.33-1.42-2.19a4.48,4.48,0,0,1-.44.8l-.38-.21a5.56,5.56,0,0,0,.42-.74s.14-.27.28-.57l0,0,0-.06,0,0,.2,0Z"/><path class="cls-9" d="M68.28,96.32l-1.13.74.19,1-.52.33-.65-3.7.41-.27,3.1,2.13-.57.37ZM66.8,95.26l.25,1.34.85-.55Z"/><path class="cls-9" d="M72.51,94.72,70.59,96l-.25-.23c.11-.41.17-.66.26-1.12a7.45,7.45,0,0,0,.12-.8,1,1,0,0,0-.12-.55.53.53,0,0,0-.78-.19.79.79,0,0,0-.29.44,1.47,1.47,0,0,0-.06.19l-.41-.21a1.1,1.1,0,0,1,.12-.42,1.47,1.47,0,0,1,.44-.51,1,1,0,0,1,1.48.28c.28.43.25,1-.11,2.25l1.32-.86Z"/><path class="cls-9" d="M73.85,90.43a2.42,2.42,0,0,1,.89.84c.61,1,.58,1.73-.09,2.16s-1.38.12-2-.78a1.87,1.87,0,0,1-.37-1.45,1.14,1.14,0,0,1,.47-.69A1,1,0,0,1,73.85,90.43Zm-1,1.11a2,2,0,0,0,.32.7c.41.63.86.92,1.18.74s.3-.65-.16-1.36a1.9,1.9,0,0,0-.72-.68.46.46,0,0,0-.43,0A.52.52,0,0,0,72.86,91.54Z"/><path class="cls-9" d="M75.53,106.52l-1.14.73.2,1-.52.34-.66-3.71.42-.27,3.09,2.13-.57.37ZM74,105.45l.26,1.35.85-.55Z"/><path class="cls-9" d="M79.11,105.33l-.52.33-1.41-2.19a5.63,5.63,0,0,1-.44.8l-.38-.21a6.7,6.7,0,0,0,.41-.73c0-.06.14-.28.28-.58l0,0,0,0,0-.06.2,0Z"/><path class="cls-9" d="M80.3,104.38a2.23,2.23,0,0,0,.55-1.8,1,1,0,0,1-.48.54A1,1,0,0,1,79,102.7a1.19,1.19,0,0,1,.41-1.59,1.11,1.11,0,0,1,1-.15,1.47,1.47,0,0,1,.77.67,2.16,2.16,0,0,1,.29,1.13,2.69,2.69,0,0,1-.61,1.64Zm.34-2.43a1,1,0,0,0-.44-.43.53.53,0,0,0-.55.06.58.58,0,0,0-.14.81.61.61,0,0,0,.86.2.75.75,0,0,0,.29-.4c0-.08,0-.14,0-.14A.89.89,0,0,0,80.64,102Z"/><path class="cls-9" d="M83,121.38l1.24-.8.23.49-1.71,1.11-1.85-2.87.53-.34Z"/><path class="cls-9" d="M86,116l1.11,1.72a1.31,1.31,0,0,1,.26,1.18,1.71,1.71,0,0,1-.68.8,1.45,1.45,0,0,1-1.36.25,1.52,1.52,0,0,1-.68-.65l-1.11-1.72.53-.34L85.18,119c.22.33.39.47.62.49a1,1,0,0,0,.55-.16.79.79,0,0,0,.45-.65,1.08,1.08,0,0,0-.23-.58l-1.11-1.72Z"/><path class="cls-9" d="M87.34,115.15l.06-.05.55-.39a1.51,1.51,0,0,1,1.08-.34,1,1,0,0,1,.75.51,1.08,1.08,0,0,1,0,1.11,1.83,1.83,0,0,1-.6.56,2.45,2.45,0,0,1-.28.16l.67,1-.53.35-1.84-2.85Zm1.32,1.15.26-.16c.41-.26.53-.6.32-.91s-.55-.37-1-.11l-.27.19Z"/><path class="cls-9" d="M88.76,142.59l-.76.49.13.68-.35.22-.44-2.5.28-.18,2.09,1.44-.39.25Zm-1-.72.17.9.58-.37Z"/><path class="cls-9" d="M91.18,141.78l-.34.23-1-1.48a3.26,3.26,0,0,1-.3.54l-.26-.14a5.32,5.32,0,0,0,.29-.5s.09-.18.18-.39l0,0v0l0,0,.14,0Z"/><path class="cls-9" d="M92.66,139.79l.31-.2.13.28-.27.18.31.47-.34.22-.31-.48-.82.54-.23-.22.24-1.85.25-.08Zm-.78-.48-.13,1.06.58-.37Z"/><path class="cls-9" d="M98.29,137l-.76.49.13.68-.35.23-.45-2.51.28-.18,2.1,1.44-.39.25Zm-1-.72.17.91.58-.37Z"/><path class="cls-9" d="M100.71,136.17l-.35.22-1-1.48a3.26,3.26,0,0,1-.3.54l-.26-.14a3.14,3.14,0,0,0,.28-.5,3.06,3.06,0,0,0,.19-.38l0,0v0l0,0,.14,0Z"/><path class="cls-9" d="M101.2,134.09a1.25,1.25,0,0,1,.41-.14.71.71,0,0,1,.7.32.78.78,0,0,1-.3,1.12,1.3,1.3,0,0,1-.66.19l-.06-.32a.92.92,0,0,0,.48-.12.43.43,0,0,0,.17-.62.46.46,0,0,0-.49-.17,1.93,1.93,0,0,0-.35.15l0,0,0,0,0,0-.42-1,.87-.56.19.29-.59.39Z"/><path class="cls-9" d="M98.83,151.1l-1.13.73.19,1-.52.33-.65-3.7.41-.27,3.1,2.13-.57.37ZM97.35,150l.25,1.34.85-.54Z"/><path class="cls-9" d="M102.41,149.91l-.51.33-1.42-2.19a4.16,4.16,0,0,1-.44.8l-.38-.21a6.94,6.94,0,0,0,.42-.74c0-.05.13-.27.27-.57l0-.05,0-.06,0-.05.21,0Z"/><path class="cls-9" d="M103.4,147c.15-.1.16-.44,0-.64a.5.5,0,0,0-.69-.07.88.88,0,0,0-.37.54l-.41-.19a1.48,1.48,0,0,1,.63-.86.92.92,0,0,1,1.31.15.8.8,0,0,1,0,.89.86.86,0,0,1,1,.37,1.1,1.1,0,0,1-.44,1.5,1.64,1.64,0,0,1-1.16.27l0-.48a1.24,1.24,0,0,0,.83-.14.53.53,0,0,0,.22-.77.49.49,0,0,0-.47-.22.79.79,0,0,0-.43.18l-.26.16-.24-.37Z"/><path class="cls-9" d="M119.26,182.32l-1.13.73.19,1-.51.34-.66-3.71.42-.27,3.09,2.13-.57.37Zm-1.48-1.07.26,1.35.85-.55Z"/><path class="cls-9" d="M122.85,181.13l-.52.33-1.42-2.19a4.61,4.61,0,0,1-.44.81l-.37-.22a6.7,6.7,0,0,0,.41-.73l.28-.58,0-.05,0-.05,0,0,.2,0Z"/><path class="cls-9" d="M124.26,176.79a2.42,2.42,0,0,1,.89.84c.62,1,.58,1.73-.09,2.16s-1.38.13-2-.77a1.93,1.93,0,0,1-.36-1.46,1.06,1.06,0,0,1,.47-.69A1,1,0,0,1,124.26,176.79Zm-1,1.11a2,2,0,0,0,.32.7c.4.64.85.92,1.17.75s.3-.66-.16-1.37a1.84,1.84,0,0,0-.71-.67.43.43,0,0,0-.44,0A.51.51,0,0,0,123.28,177.9Z"/><path class="cls-9" d="M130.66,186.37a5.31,5.31,0,0,1,.38.53,2,2,0,0,1,.24.56,1,1,0,0,1-.51,1.14,1,1,0,0,1-1.31-.16,3.92,3.92,0,0,1-.27-.33l-.1-.16a4,4,0,0,1-.23-.42Zm-1.32,1.33a1.08,1.08,0,0,0,.15.27.77.77,0,0,0,1.42-.45,1.09,1.09,0,0,0-.13-.41l-.08-.13,0-.06,0,0Z"/><path class="cls-9" d="M130.58,190.22l-.22-.34,1.82-1.18.22.34Z"/><path class="cls-9" d="M132.9,189.82a5.16,5.16,0,0,1,.35.48c.31.49.28.88-.08,1.11a.62.62,0,0,1-.53.07.71.71,0,0,1-.17-.09l-.45,1.06-.26-.4.41-.9-.17-.26-.7.45-.22-.34Zm-.66.91.21.32a.37.37,0,0,0,.47,0c.21-.14.23-.36.07-.6l0-.05a.77.77,0,0,0-.09-.13Z"/><path class="cls-9" d="M133.73,192.71l.42.65-.27.18-.42-.65-.53.34.54.84-.31.14-.73-1.13,1.82-1.18.68,1-.28.18-.46-.72Z"/><path class="cls-9" d="M135.82,195.2a.82.82,0,0,0-.14-.5.7.7,0,0,0-1-.18.86.86,0,0,0-.36.5.74.74,0,0,0,.1.52.91.91,0,0,0,.42.36l-.17.31a1.19,1.19,0,0,1-.6-.51,1.11,1.11,0,0,1-.15-.82,1.13,1.13,0,0,1,.53-.72,1.16,1.16,0,0,1,.9-.15,1.13,1.13,0,0,1,.65.49,1.23,1.23,0,0,1,.22.69Z"/><path class="cls-9" d="M137.21,197.35a.85.85,0,0,0-.13-.49.69.69,0,0,0-1-.18.76.76,0,0,0-.36.49.72.72,0,0,0,.09.52.81.81,0,0,0,.42.36l-.17.31a1.26,1.26,0,0,1-.6-.5,1.15,1.15,0,0,1-.15-.83,1.21,1.21,0,0,1,1.43-.87,1.18,1.18,0,0,1,.66.49,1.3,1.3,0,0,1,.21.69Z"/><path class="cls-9" d="M136.55,199.46l-.22-.34,1.83-1.18.22.34Z"/><path class="cls-9" d="M139.5,199.91a1.18,1.18,0,0,1,.19.52,1.12,1.12,0,0,1-.54,1.06,1.13,1.13,0,1,1-1.22-1.9,1.12,1.12,0,0,1,1.55.29l0-.21.62.2.08.32Zm-.81-.12a.84.84,0,0,0-.51.16,1,1,0,0,0-.37.51.68.68,0,0,0,1.08.68.76.76,0,0,0,.29-1.06A.6.6,0,0,0,138.69,199.79Z"/><path class="cls-9" d="M140.69,201.79l-.54,1.93,1.23-.79.2.31-1.8,1.16-.18-.16.55-2-1.25.81-.2-.31,1.8-1.16Z"/><path class="cls-9" d="M144.72,212.18a1.14,1.14,0,0,0-.77.15.42.42,0,0,0-.17.57c.1.2.27.25.66.2l.36,0c.58-.07.88,0,1.12.41a1.09,1.09,0,0,1-.43,1.5,1.83,1.83,0,0,1-1.12.29l-.24-.56a1.38,1.38,0,0,0,1-.13.47.47,0,0,0,.21-.7c-.11-.18-.28-.22-.65-.17a2.65,2.65,0,0,1-.72.05.88.88,0,0,1-.72-.43,1,1,0,0,1,.36-1.4,1.5,1.5,0,0,1,1-.26Z"/><path class="cls-9" d="M147,211.5l1-.66.27.42-1,.66.55.84,1.31-.85.23.48-1.78,1.15-1.85-2.87,1.64-1.06.28.44-1.12.72Z"/><path class="cls-9" d="M154.89,226l1.12,1.72a1.31,1.31,0,0,1,.26,1.18,1.66,1.66,0,0,1-.68.8,1.46,1.46,0,0,1-1.36.26,1.58,1.58,0,0,1-.68-.65l-1.11-1.72.53-.35,1.11,1.72c.22.34.39.47.62.49a1,1,0,0,0,.55-.16c.3-.2.45-.4.45-.65a1.11,1.11,0,0,0-.23-.58l-1.11-1.72Z"/><path class="cls-9" d="M159,226.24l-1.13.73.19,1-.51.34-.66-3.71.41-.27,3.1,2.13-.57.37Zm-1.48-1.07.26,1.35.84-.55Z"/><path class="cls-9" d="M169.21,244.74a1.31,1.31,0,0,0-.78.22,1.08,1.08,0,0,0-.28,1.59,1.24,1.24,0,0,0,.77.56,1.12,1.12,0,0,0,.82-.15,1.3,1.3,0,0,0,.57-.66l.48.27a1.9,1.9,0,0,1-.79.94,1.77,1.77,0,0,1-1.29.24,1.74,1.74,0,0,1-1.14-.84,1.79,1.79,0,0,1-.24-1.4,1.86,1.86,0,0,1,.78-1,2,2,0,0,1,1.08-.33Z"/><path class="cls-9" d="M170.14,243.27a10.09,10.09,0,0,1,.85-.59,2.69,2.69,0,0,1,.87-.37,1.61,1.61,0,0,1,1.79.79,1.67,1.67,0,0,1,.14,1.53,1.8,1.8,0,0,1-.39.53,3.83,3.83,0,0,1-.52.42l-.25.16c-.22.14-.38.23-.65.37Zm2.1,2.08a1.8,1.8,0,0,0,.42-.23,1.1,1.1,0,0,0,.4-1.68,1.19,1.19,0,0,0-1.11-.56,1.57,1.57,0,0,0-.63.21l-.21.13-.1.06-.07.05Z"/><path class="cls-9" d="M76.66,83.07a8.54,8.54,0,0,1,1-.7c.8-.51,1.51-.48,1.88.11a1,1,0,0,1,0,1.11,1.08,1.08,0,0,1,1.36.45c.41.65.12,1.38-.8,2a8.37,8.37,0,0,1-1.12.62Zm1.6,1.1.52-.33A.68.68,0,0,0,78.9,83a.65.65,0,0,0-1-.13,3.78,3.78,0,0,0-.33.22Zm1,1.59a3.36,3.36,0,0,0,.49-.27c.45-.29.59-.66.37-1a.73.73,0,0,0-.71-.32,1.23,1.23,0,0,0-.48.22l-.39.24Z"/><path class="cls-9" d="M82.59,81.48c.19-.12.21-.54,0-.79a.61.61,0,0,0-.86-.09,1.15,1.15,0,0,0-.47.67L80.78,81a1.9,1.9,0,0,1,.8-1.08,1.14,1.14,0,0,1,1.63.2,1,1,0,0,1,0,1.12,1.06,1.06,0,0,1,1.22.47,1.38,1.38,0,0,1-.56,1.87,2.09,2.09,0,0,1-1.46.33l0-.61a1.54,1.54,0,0,0,1-.16.69.69,0,0,0,.29-1,.67.67,0,0,0-.6-.27,1.2,1.2,0,0,0-.54.21l-.32.21-.3-.47Z"/><path class="cls-9" d="M88.39,75.76c.48-.37.66-.5,1-.7.8-.51,1.51-.47,1.88.11a1,1,0,0,1,0,1.11,1.08,1.08,0,0,1,1.36.45c.41.65.12,1.38-.8,2a8.37,8.37,0,0,1-1.12.62Zm1.6,1.1.52-.33a.68.68,0,0,0,.12-.84.65.65,0,0,0-1-.13,2.44,2.44,0,0,0-.33.23Zm1,1.6a3.43,3.43,0,0,0,.49-.28c.45-.28.59-.66.37-1a.73.73,0,0,0-.71-.32,1.4,1.4,0,0,0-.48.22l-.39.25Z"/><path class="cls-9" d="M95.82,74.14l.57-.36.24.52-.51.32.56.89-.62.4L95.5,75,94,76l-.42-.41.47-3.4.46-.15Zm-1.44-.88-.25,1.95,1.07-.67Z"/><path class="cls-9" d="M100.25,68.62a10.5,10.5,0,0,1,1-.71c.8-.51,1.51-.47,1.88.11a1,1,0,0,1,0,1.11,1.08,1.08,0,0,1,1.36.45c.41.65.12,1.38-.8,2a9.78,9.78,0,0,1-1.12.61Zm1.6,1.09.52-.33a.66.66,0,0,0,.12-.83c-.19-.34-.59-.39-1-.14a3.88,3.88,0,0,0-.33.23Zm1,1.6a3.43,3.43,0,0,0,.49-.28c.45-.28.59-.65.37-1a.73.73,0,0,0-.71-.32,1.34,1.34,0,0,0-.48.21l-.39.25Z"/><path class="cls-9" d="M105.85,66.84a2.13,2.13,0,0,1,.75-.25,1.29,1.29,0,0,1,1.29.59,1.45,1.45,0,0,1-.57,2.08,2.42,2.42,0,0,1-1.21.34L106,69a1.61,1.61,0,0,0,.89-.2.79.79,0,0,0,.32-1.14.84.84,0,0,0-.9-.34,3.44,3.44,0,0,0-.65.28l-.07,0-.07,0-.07,0-.76-1.79,1.62-1,.34.55-1.09.69Z"/><path class="cls-9" d="M111.3,62.19c.48-.37.66-.5,1-.7.81-.51,1.51-.47,1.88.11a1,1,0,0,1,0,1.11,1.08,1.08,0,0,1,1.36.45c.42.65.12,1.38-.8,2a8.84,8.84,0,0,1-1.11.62Zm1.6,1.1.52-.33a.68.68,0,0,0,.12-.84c-.19-.33-.58-.39-1-.13l-.33.22Zm1,1.6a3.53,3.53,0,0,0,.5-.28c.44-.28.58-.66.36-1a.72.72,0,0,0-.71-.32,1.4,1.4,0,0,0-.48.22l-.39.25Z"/><path class="cls-9" d="M117.62,58.56a3.4,3.4,0,0,0-.6,1.14,2.23,2.23,0,0,0-.1,1.07,1.17,1.17,0,0,1,.57-.66,1.21,1.21,0,0,1,1-.11,1.31,1.31,0,0,1,.68.52,1.45,1.45,0,0,1-.51,2.11,1.5,1.5,0,0,1-2.14-.62,2.77,2.77,0,0,1-.24-2.29,4,4,0,0,1,.67-1.26Zm-.38,3.08c.32.51.77.67,1.16.43a.71.71,0,0,0,.2-1.09.74.74,0,0,0-1.07-.23,1,1,0,0,0-.37.58c0,.07,0,.12,0,.13A1.15,1.15,0,0,0,117.24,61.64Z"/><path class="cls-9" d="M122.88,54.8c.48-.37.66-.5,1-.7.81-.51,1.51-.47,1.88.11a1,1,0,0,1,0,1.11,1.08,1.08,0,0,1,1.36.45c.42.65.12,1.38-.8,2a8.84,8.84,0,0,1-1.11.62Zm1.61,1.1.51-.33a.68.68,0,0,0,.12-.84c-.19-.33-.58-.39-1-.13l-.33.22Zm1,1.6a3.53,3.53,0,0,0,.5-.28c.44-.28.58-.66.36-1a.71.71,0,0,0-.71-.32,1.48,1.48,0,0,0-.48.22l-.39.25Z"/><path class="cls-9" d="M129.11,51l.29.22c.06.61.08.87.12,1.21,0,.67.11,1.19.21,1.92,0,.33,0,0,.15,1.16l-.78.3v-.14c-.12-1-.18-1.56-.24-2.28,0-.46,0-.75-.08-1.41L127,53l-.35-.54Z"/><path class="cls-9" d="M134.15,47.7c.49-.37.67-.5,1-.7.8-.51,1.5-.47,1.87.11a1,1,0,0,1,0,1.11,1.1,1.1,0,0,1,1.37.45c.41.65.11,1.38-.8,2a9,9,0,0,1-1.12.62Zm1.61,1.1.52-.33a.68.68,0,0,0,.12-.84c-.19-.33-.59-.39-1-.13a3.19,3.19,0,0,0-.32.23Zm1,1.6a3.43,3.43,0,0,0,.49-.28c.44-.28.58-.66.37-1a.72.72,0,0,0-.71-.31,1.34,1.34,0,0,0-.48.21l-.39.25Z"/><path class="cls-9" d="M141.42,45.76a1.09,1.09,0,0,1,.75.47,1.55,1.55,0,0,1-2.53,1.68,1.07,1.07,0,0,1-.08-1,2.4,2.4,0,0,1,.2-.33,1,1,0,0,1-1-.43,1.21,1.21,0,0,1,.48-1.65,1.51,1.51,0,0,1,1-.29,1,1,0,0,1,.69.44,1,1,0,0,1-.06,1.15A1.49,1.49,0,0,1,141.42,45.76Zm-1,.75a.86.86,0,0,0-.1,1,.71.71,0,0,0,1,.19.65.65,0,0,0,.25-1,.85.85,0,0,0-.85-.26Zm-.06-.63a.78.78,0,0,0,0-.85.58.58,0,0,0-.83-.1.52.52,0,0,0-.18.76.83.83,0,0,0,.72.22Z"/><path class="cls-9" d="M145.13,40.75a9.54,9.54,0,0,1,1-.7c.81-.52,1.51-.48,1.88.1a1,1,0,0,1,0,1.11,1.11,1.11,0,0,1,1.36.45c.42.66.12,1.39-.8,2a10.32,10.32,0,0,1-1.11.62Zm1.61,1.09.51-.32a.68.68,0,0,0,.12-.84c-.18-.34-.58-.39-1-.13-.12.08-.21.13-.33.22Zm1,1.6a3.53,3.53,0,0,0,.5-.28c.44-.28.58-.65.36-1a.71.71,0,0,0-.71-.32,1.51,1.51,0,0,0-.48.21l-.39.25Z"/><path class="cls-9" d="M151.3,41.63a2.82,2.82,0,0,0,.7-2.25,1.23,1.23,0,0,1-.6.67,1.25,1.25,0,0,1-1.71-.54,1.49,1.49,0,0,1,.53-2,1.43,1.43,0,0,1,1.23-.18,2,2,0,0,1,1,.85,2.73,2.73,0,0,1,.36,1.41,3.34,3.34,0,0,1-.79,2Zm.45-3a1.19,1.19,0,0,0-.55-.54.65.65,0,0,0-.68.06.72.72,0,0,0-.19,1,.75.75,0,0,0,1.07.26.93.93,0,0,0,.36-.5l.05-.18Z"/><path class="cls-9" d="M109.29,130.57a1.71,1.71,0,0,0-1,.26,1.36,1.36,0,0,0-.37,2,1.58,1.58,0,0,0,1,.71,1.43,1.43,0,0,0,1-.17,1.75,1.75,0,0,0,.72-.83l.6.34a2.37,2.37,0,0,1-1,1.17,2.14,2.14,0,0,1-3-.78,2.15,2.15,0,0,1,.7-3,2.47,2.47,0,0,1,1.36-.41Z"/><path class="cls-9" d="M112.48,129.66c.2-.12.21-.55,0-.79a.62.62,0,0,0-.86-.1,1.18,1.18,0,0,0-.47.68l-.52-.25a1.93,1.93,0,0,1,.81-1.07,1.13,1.13,0,0,1,1.63.2,1,1,0,0,1,0,1.12,1.07,1.07,0,0,1,1.23.47,1.39,1.39,0,0,1-.57,1.88,2.09,2.09,0,0,1-1.46.32l0-.61a1.49,1.49,0,0,0,1-.16.68.68,0,0,0,.29-1,.65.65,0,0,0-.59-.27,1.12,1.12,0,0,0-.54.21l-.33.21-.3-.47Z"/><path class="cls-9" d="M121.28,123.39a1.71,1.71,0,0,0-1,.26,1.36,1.36,0,0,0-.37,2,1.54,1.54,0,0,0,1,.71,1.43,1.43,0,0,0,1-.17,1.7,1.7,0,0,0,.72-.83l.6.34a2.33,2.33,0,0,1-1,1.17,2.14,2.14,0,0,1-3-.78,2.28,2.28,0,0,1-.28-1.76,2.34,2.34,0,0,1,1-1.28,2.39,2.39,0,0,1,1.37-.4Z"/><path class="cls-9" d="M126,122.45l.58-.37.24.53-.51.33.56.88-.62.4-.57-.89-1.53,1-.42-.41.48-3.41.45-.15Zm-1.43-.89-.26,2,1.07-.67Z"/><path class="cls-9" d="M133.14,115.93a1.57,1.57,0,0,0-1,.26,1.35,1.35,0,0,0-.37,2,1.59,1.59,0,0,0,1,.72,1.46,1.46,0,0,0,1-.17,1.67,1.67,0,0,0,.71-.83l.61.34a2.35,2.35,0,0,1-1,1.17,2.19,2.19,0,0,1-1.62.29,2.24,2.24,0,0,1-1.42-1.07,2.15,2.15,0,0,1,.7-3,2.47,2.47,0,0,1,1.37-.41Z"/><path class="cls-9" d="M136,114.83a2.49,2.49,0,0,1,.76-.25,1.28,1.28,0,0,1,1.29.6,1.44,1.44,0,0,1-.57,2.08,2.45,2.45,0,0,1-1.21.34l-.12-.61a1.64,1.64,0,0,0,.9-.2.8.8,0,0,0,.32-1.15.86.86,0,0,0-.91-.34,3.74,3.74,0,0,0-.65.28l-.07,0-.07,0-.07,0-.75-1.8,1.62-1,.35.54-1.1.7Z"/><path class="cls-9" d="M144.55,109.39a1.76,1.76,0,0,0-1,.26,1.36,1.36,0,0,0-.36,2,1.6,1.6,0,0,0,1,.72,1.43,1.43,0,0,0,1-.18,1.7,1.7,0,0,0,.72-.83l.6.35a2.46,2.46,0,0,1-1,1.17,2.24,2.24,0,0,1-1.62.28,2.21,2.21,0,0,1-1.42-1.06,2.17,2.17,0,0,1,.7-3,2.38,2.38,0,0,1,1.36-.4Z"/><path class="cls-9" d="M148.13,106.43a3.6,3.6,0,0,0-.6,1.14,2.28,2.28,0,0,0-.1,1.08A1.17,1.17,0,0,1,148,108a1.22,1.22,0,0,1,1-.11,1.36,1.36,0,0,1,.68.52,1.47,1.47,0,0,1,.18,1.31,1.44,1.44,0,0,1-.68.8,1.51,1.51,0,0,1-2.16-.61,2.8,2.8,0,0,1-.23-2.3,3.86,3.86,0,0,1,.68-1.27Zm-.38,3.1c.32.51.77.67,1.16.42a.71.71,0,0,0,.2-1.09.74.74,0,0,0-1.07-.23,1,1,0,0,0-.37.58,1.32,1.32,0,0,0,0,.13Z"/><path class="cls-9" d="M159.07,99.43l.29.22c0,.61.07.87.11,1.21.05.68.11,1.2.21,1.93,0,.33,0,0,.15,1.16l-.78.3,0-.14c-.11-1-.17-1.57-.23-2.28,0-.47-.05-.76-.08-1.42l-1.74,1.1-.34-.54Z"/><path class="cls-9" d="M155.68,102.36a1.71,1.71,0,0,0-1,.26,1.36,1.36,0,0,0-.37,2,1.54,1.54,0,0,0,1,.71,1.43,1.43,0,0,0,1-.17,1.75,1.75,0,0,0,.72-.83l.6.35a2.4,2.4,0,0,1-1,1.16,2.14,2.14,0,0,1-3-.78,2.28,2.28,0,0,1-.28-1.76,2.25,2.25,0,0,1,1-1.28,2.38,2.38,0,0,1,1.36-.4Z"/><path class="cls-9" d="M167,95.74a1.57,1.57,0,0,0-1,.26,1.35,1.35,0,0,0-.37,2,1.56,1.56,0,0,0,1,.72,1.46,1.46,0,0,0,1-.18,1.65,1.65,0,0,0,.71-.82L169,98a2.35,2.35,0,0,1-1,1.17,2.19,2.19,0,0,1-1.62.29,2.38,2.38,0,0,1-1.7-2.83,2.36,2.36,0,0,1,1-1.29A2.46,2.46,0,0,1,167,95Z"/><path class="cls-9" d="M171.52,94.47a1.13,1.13,0,0,1,.75.48,1.56,1.56,0,0,1-2.55,1.68,1.1,1.1,0,0,1-.07-1,1.93,1.93,0,0,1,.2-.34,1,1,0,0,1-1-.43,1.2,1.2,0,0,1,.48-1.65,1.54,1.54,0,0,1,1-.3,1,1,0,0,1,.69.45,1,1,0,0,1-.06,1.15A2.26,2.26,0,0,1,171.52,94.47Zm-1.05.75a.88.88,0,0,0-.1,1,.7.7,0,0,0,1,.18.63.63,0,0,0,.25-1,.85.85,0,0,0-.85-.26Zm-.06-.63a.76.76,0,0,0,0-.85.58.58,0,0,0-.83-.1.52.52,0,0,0-.18.76.83.83,0,0,0,.72.22Z"/><path class="cls-9" d="M178.3,88.71a1.71,1.71,0,0,0-1,.26,1.36,1.36,0,0,0-.37,2,1.54,1.54,0,0,0,1,.71,1.43,1.43,0,0,0,1-.17,1.75,1.75,0,0,0,.72-.83l.6.34a2.33,2.33,0,0,1-1,1.17,2.14,2.14,0,0,1-3-.78,2.28,2.28,0,0,1-.28-1.76,2.34,2.34,0,0,1,1-1.28,2.47,2.47,0,0,1,1.37-.41Z"/><path class="cls-9" d="M181.73,90.28a2.84,2.84,0,0,0,.71-2.26,1.34,1.34,0,0,1-.61.68,1.26,1.26,0,0,1-1.71-.55,1.49,1.49,0,0,1,.53-2,1.4,1.4,0,0,1,1.23-.17,1.84,1.84,0,0,1,1,.85,2.8,2.8,0,0,1,.36,1.42,3.36,3.36,0,0,1-.79,2Zm.45-3a1.19,1.19,0,0,0-.55-.54.64.64,0,0,0-.68,0,.73.73,0,0,0-.19,1,.74.74,0,0,0,1.07.26.93.93,0,0,0,.36-.5l.05-.17Z"/><path class="cls-9" d="M153.71,66.77l1.73-1.15.33.7-2.39,1.57-2.63-4,.74-.49Z"/><path class="cls-9" d="M159,62.57l-1.58,1,.28,1.41-.72.47-1-5.19.58-.39,4.37,3-.8.52ZM157,61.09l.37,1.89,1.19-.78Z"/><path class="cls-9" d="M161.64,59.19l1.34-.88.39.6-1.34.88,1.11,1.68-.75.49-2.63-4L162,56.47l.4.61-1.51,1Z"/><path class="cls-9" d="M182,107.08l-1,.69.18.92-.47.32-.64-3.43.38-.25,2.89,2-.53.34Zm-1.38-1,.25,1.25.78-.52Z"/><path class="cls-9" d="M184.57,103.49a1.31,1.31,0,0,0-.73.21,1,1,0,0,0-.24,1.47,1.14,1.14,0,0,0,.72.52,1.08,1.08,0,0,0,.76-.14,1.29,1.29,0,0,0,.52-.62l.45.24a1.79,1.79,0,0,1-.73.88,1.67,1.67,0,0,1-1.2.23,1.65,1.65,0,0,1-1.06-.77,1.71,1.71,0,0,1-.23-1.3,1.77,1.77,0,0,1,.71-1,1.72,1.72,0,0,1,1-.31Z"/><path class="cls-9" d="M186.6,102.86l.94-.61.25.39-.93.61.51.78,1.21-.8.21.44-1.64,1.08-1.74-2.64,1.52-1,.26.41-1,.68Z"/><path class="cls-9" d="M185.56,108.74a1.2,1.2,0,0,0-.72.2,1,1,0,0,0-.25,1.47,1.16,1.16,0,0,0,.72.52,1.06,1.06,0,0,0,.76-.14,1.24,1.24,0,0,0,.52-.62l.45.24a1.69,1.69,0,0,1-.73.88,1.57,1.57,0,0,1-1.19.23,1.61,1.61,0,0,1-1.06-.77,1.65,1.65,0,0,1-.23-1.29,1.71,1.71,0,0,1,.71-1,1.79,1.79,0,0,1,1-.31Z"/><path class="cls-9" d="M178.06,110l1.14-.75.21.46-1.57,1-1.74-2.64.49-.32Z"/><path class="cls-9" d="M211.63,153.3a9.54,9.54,0,0,1,1-.7,3.24,3.24,0,0,1,1-.45,1.89,1.89,0,0,1,2.1.91,2,2,0,0,1,.18,1.8,2,2,0,0,1-.45.63,5.45,5.45,0,0,1-.61.49l-.28.19a8.8,8.8,0,0,1-.77.44Zm2.49,2.42a2.64,2.64,0,0,0,.49-.28,1.3,1.3,0,0,0,.45-2,1.41,1.41,0,0,0-1.31-.65,1.93,1.93,0,0,0-.74.26,1.58,1.58,0,0,0-.24.15l-.12.07-.08.07Z"/><path class="cls-9" d="M219.5,152.89l-.6.4-1.68-2.56a6.27,6.27,0,0,1-.51,1l-.45-.25a8.34,8.34,0,0,0,.48-.86c0-.07.16-.33.32-.68l0-.06,0-.06,0-.07.24,0Z"/><path class="cls-9" d="M221.12,147.79a2.75,2.75,0,0,1,1,1c.73,1.1.69,2-.08,2.53s-1.62.16-2.31-.89a2.25,2.25,0,0,1-.45-1.7,1.29,1.29,0,0,1,.55-.82A1.23,1.23,0,0,1,221.12,147.79ZM220,149.1a2.49,2.49,0,0,0,.38.82c.49.74,1,1.06,1.39.86s.35-.77-.2-1.6a2,2,0,0,0-.85-.78.54.54,0,0,0-.51,0A.62.62,0,0,0,220,149.1Z"/><path class="cls-9" d="M221.52,167.37l1.16-.76.22.46-1.59,1.05-1.77-2.68.5-.32Z"/><path class="cls-9" d="M224.31,162.3l1.06,1.61a1.23,1.23,0,0,1,.25,1.11,1.51,1.51,0,0,1-.63.76,1.36,1.36,0,0,1-1.27.25,1.47,1.47,0,0,1-.65-.61l-1.06-1.6.5-.33,1.06,1.6c.21.32.36.44.58.46a.9.9,0,0,0,.52-.16c.28-.19.42-.38.41-.61a.93.93,0,0,0-.21-.54l-1.06-1.61Z"/><path class="cls-9" d="M230.3,162.2l-.49.32-1.36-1.64.36,2.3-.31.2-1.94-1.23,1,1.88-.45.29-1.4-2.91.37-.24,2.19,1.38-.41-2.56.37-.24Z"/><path class="cls-9" d="M137.11,179a10.66,10.66,0,0,1,1-.7,3.34,3.34,0,0,1,1-.45,1.9,1.9,0,0,1,2.1.91,2,2,0,0,1,.18,1.8,2,2,0,0,1-.45.62,4.61,4.61,0,0,1-.61.5l-.29.19a7.36,7.36,0,0,1-.76.43Zm2.48,2.42a3.38,3.38,0,0,0,.49-.28,1.46,1.46,0,0,0,.72-1,1.49,1.49,0,0,0-.27-1,1.4,1.4,0,0,0-1.31-.63,1.76,1.76,0,0,0-.74.25,1.58,1.58,0,0,0-.24.15l-.12.07-.08.07Z"/><path class="cls-9" d="M143.28,177a.59.59,0,0,0,0-.74.57.57,0,0,0-.81-.08,1.05,1.05,0,0,0-.42.64l-.49-.22a1.78,1.78,0,0,1,.74-1,1.05,1.05,0,0,1,1.52.16.93.93,0,0,1,0,1,1,1,0,0,1,1.15.42,1.29,1.29,0,0,1-.5,1.76,2,2,0,0,1-1.35.33l0-.57a1.38,1.38,0,0,0,1-.17.63.63,0,0,0,.26-.91.64.64,0,0,0-.56-.25,1.16,1.16,0,0,0-.5.21l-.3.2-.29-.43Z"/><path class="cls-9" d="M148.72,172a10.66,10.66,0,0,1,1-.7,3.45,3.45,0,0,1,1-.45,1.92,1.92,0,0,1,2.11.91,2,2,0,0,1,.17,1.8,1.87,1.87,0,0,1-.45.62,5.3,5.3,0,0,1-.6.5l-.29.18a8.54,8.54,0,0,1-.76.44Zm2.48,2.41a2.25,2.25,0,0,0,.49-.27,1.48,1.48,0,0,0,.73-1,1.45,1.45,0,0,0-.28-1,1.42,1.42,0,0,0-1.31-.64,2.06,2.06,0,0,0-.74.26,1.5,1.5,0,0,0-.23.15l-.12.07-.08.06Z"/><path class="cls-9" d="M156.29,170l.54-.35.23.49-.47.31.54.82-.58.38-.54-.82-1.42.93-.39-.37.39-3.2L155,168Zm-1.35-.81-.21,1.84,1-.65Z"/><path class="cls-9" d="M160.55,164.82c.45-.35.55-.42,1-.71a3.43,3.43,0,0,1,1-.44,1.88,1.88,0,0,1,2.1.91,1.94,1.94,0,0,1,.18,1.79,2,2,0,0,1-.45.63,5.45,5.45,0,0,1-.61.49l-.28.19a6.82,6.82,0,0,1-.77.43Zm2.48,2.41a2.64,2.64,0,0,0,.49-.28,1.45,1.45,0,0,0,.72-1,1.47,1.47,0,0,0-.27-1,1.42,1.42,0,0,0-1.31-.64,2,2,0,0,0-.74.25c-.08,0-.16.09-.24.15l-.11.08-.09.06Z"/><path class="cls-9" d="M166.4,162.66a2.09,2.09,0,0,1,.71-.25,1.21,1.21,0,0,1,1.21.54,1.34,1.34,0,0,1-.5,2,2.17,2.17,0,0,1-1.13.34l-.11-.57a1.48,1.48,0,0,0,.83-.2.74.74,0,0,0,.28-1.08.79.79,0,0,0-.85-.3,3,3,0,0,0-.6.27l-.07,0-.06.05-.07,0-.73-1.66,1.5-1,.33.5-1,.67Z"/><path class="cls-9" d="M171.85,157.64a11.24,11.24,0,0,1,1-.7,3.24,3.24,0,0,1,1-.45,2,2,0,0,1,2.27,2.71,1.83,1.83,0,0,1-.44.62,4.61,4.61,0,0,1-.61.5l-.29.19a6.64,6.64,0,0,1-.76.43Zm2.48,2.42a2.32,2.32,0,0,0,.48-.28,1.45,1.45,0,0,0,.73-1,1.4,1.4,0,0,0-.28-.95,1.39,1.39,0,0,0-1.31-.64,1.92,1.92,0,0,0-.73.25l-.24.15-.12.08-.08.06Z"/><path class="cls-9" d="M178.35,153.73a3.35,3.35,0,0,0-.55,1.08,2.34,2.34,0,0,0-.08,1,1.23,1.23,0,0,1,1.49-.74,1.19,1.19,0,0,1,.64.48,1.38,1.38,0,0,1,.19,1.22,1.35,1.35,0,0,1-.62.76,1.42,1.42,0,0,1-2-.54,2.6,2.6,0,0,1-.26-2.15,3.74,3.74,0,0,1,.61-1.19Zm-.31,2.9c.31.47.73.62,1.09.38a.67.67,0,0,0,.17-1,.69.69,0,0,0-1-.19.87.87,0,0,0-.34.55c0,.06,0,.11,0,.12Z"/><path class="cls-9" d="M183.4,150.88a10.66,10.66,0,0,1,1-.7,3.34,3.34,0,0,1,1-.45,1.89,1.89,0,0,1,2.1.91,2,2,0,0,1,.18,1.8,2,2,0,0,1-.45.62,5.57,5.57,0,0,1-.61.5l-.28.18a8.8,8.8,0,0,1-.77.44Zm2.48,2.41a2.51,2.51,0,0,0,.49-.27,1.31,1.31,0,0,0,.45-2,1.43,1.43,0,0,0-1.31-.64,1.93,1.93,0,0,0-.74.26l-.24.14-.12.08-.08.06Z"/><path class="cls-9" d="M189.81,146.78l.28.2c.06.57.09.81.12,1.13.07.63.13,1.11.23,1.8,0,.31,0,0,.16,1.08l-.72.29,0-.13c-.13-.93-.19-1.46-.25-2.13-.05-.43-.07-.71-.11-1.32l-1.6,1.06-.33-.5Z"/><path class="cls-9" d="M194.27,143.84c.45-.34.55-.41,1-.7a3.32,3.32,0,0,1,1-.44,1.88,1.88,0,0,1,2.1.91,1.94,1.94,0,0,1,.18,1.79,2.18,2.18,0,0,1-.45.63,5.45,5.45,0,0,1-.61.49l-.29.19a6.64,6.64,0,0,1-.76.43Zm2.48,2.42a2.32,2.32,0,0,0,.48-.28,1.28,1.28,0,0,0,.45-2,1.39,1.39,0,0,0-1.31-.64,1.92,1.92,0,0,0-.73.25c-.08,0-.16.09-.24.15l-.12.08-.08.06Z"/><path class="cls-9" d="M201.68,141.5a1.05,1.05,0,0,1,.71.44,1.25,1.25,0,0,1-.53,1.78,1.27,1.27,0,0,1-1.82-.17,1,1,0,0,1-.08-.94,1.38,1.38,0,0,1,.18-.32.93.93,0,0,1-1-.38,1.13,1.13,0,0,1,.43-1.55,1.37,1.37,0,0,1,1-.29.91.91,0,0,1,.65.4.89.89,0,0,1,0,1.08A1.66,1.66,0,0,1,201.68,141.5Zm-1,.72a.79.79,0,0,0-.08.93.64.64,0,0,0,.91.16.59.59,0,0,0,.22-.9.79.79,0,0,0-.8-.23Zm-.07-.59a.73.73,0,0,0,0-.79.54.54,0,0,0-.78-.08.48.48,0,0,0-.16.71.76.76,0,0,0,.68.19Z"/><path class="cls-9" d="M205.58,137.53a9.45,9.45,0,0,1,1-.7,3.24,3.24,0,0,1,1-.45,1.9,1.9,0,0,1,2.1.91,1.93,1.93,0,0,1,.17,1.8,1.83,1.83,0,0,1-.44.62,4.61,4.61,0,0,1-.61.5l-.29.18a6.64,6.64,0,0,1-.76.44Zm2.48,2.42a2.89,2.89,0,0,0,.48-.28,1.29,1.29,0,0,0,.45-2,1.41,1.41,0,0,0-1.31-.64,2,2,0,0,0-.73.26,1.58,1.58,0,0,0-.24.15l-.12.07-.08.07Z"/><path class="cls-9" d="M212,137.85a2.62,2.62,0,0,0,.63-2.11,1.23,1.23,0,0,1-.56.63,1.16,1.16,0,0,1-1.6-.48,1.39,1.39,0,0,1,.46-1.86,1.33,1.33,0,0,1,1.15-.18,1.73,1.73,0,0,1,.91.77,2.65,2.65,0,0,1,.36,1.32,3.14,3.14,0,0,1-.71,1.93Zm.38-2.84a1.19,1.19,0,0,0-.52-.5.6.6,0,0,0-.64.07.67.67,0,0,0-.16.95.69.69,0,0,0,1,.22.81.81,0,0,0,.33-.47c0-.09.05-.16,0-.16Z"/><path class="cls-9" d="M327.35,163.77l-.57-.91.41-.26,1.4,2.22-.41.27-.62-1-1,.66.62,1-.41.26-1.41-2.23.42-.26.57.91Z"/><path class="cls-9" d="M329.51,164.11a1.69,1.69,0,0,0,.44-1.39.8.8,0,0,1-.37.42.79.79,0,0,1-1.06-.34.93.93,0,0,1,.33-1.23.87.87,0,0,1,.76-.1,1.18,1.18,0,0,1,.6.52,1.76,1.76,0,0,1,.21.88,2,2,0,0,1-.49,1.26Zm.29-1.87a.8.8,0,0,0-.34-.34.42.42,0,0,0-.42,0,.44.44,0,0,0-.12.62.46.46,0,0,0,.66.17.58.58,0,0,0,.22-.31,1,1,0,0,0,0-.11Z"/><path class="cls-9" d="M259.9,118.43a11.74,11.74,0,0,1,1.39-.08c1.1,0,1.76.47,1.76,1.27a1.14,1.14,0,0,1-.73,1.06,1.27,1.27,0,0,1,1.06,1.29c0,.89-.75,1.42-2,1.42a12.22,12.22,0,0,1-1.48-.09Zm.89,2.07h.71a.79.79,0,0,0,.64-.75c0-.44-.34-.74-.89-.74h-.46Zm0,2.19a3.49,3.49,0,0,0,.65,0c.61,0,1-.28,1-.75a.83.83,0,0,0-.49-.75,1.6,1.6,0,0,0-.61-.09h-.53Z"/><path class="cls-9" d="M266.22,123.34h-.92V118.4h.92Z"/><path class="cls-9" d="M268.32,118.43a11.74,11.74,0,0,1,1.39-.08c1.1,0,1.77.47,1.77,1.27a1.14,1.14,0,0,1-.73,1.06A1.27,1.27,0,0,1,271.8,122c0,.89-.75,1.42-2,1.42a12.22,12.22,0,0,1-1.48-.09Zm.89,2.07h.71a.79.79,0,0,0,.64-.75c0-.44-.33-.74-.89-.74h-.46Zm0,2.19a3.49,3.49,0,0,0,.65,0c.61,0,1-.28,1-.75a.83.83,0,0,0-.49-.75,1.6,1.6,0,0,0-.61-.09h-.53Z"/><path class="cls-9" d="M274.64,122.55h2.14l-.11.79h-2.95V118.4h.92Z"/><path class="cls-9" d="M279.51,123.34h-.91V118.4h.91Z"/><path class="cls-9" d="M286.58,120.88a2.46,2.46,0,0,1-2.58,2.58,2.49,2.49,0,0,1-2.54-2.6,2.52,2.52,0,0,1,2.51-2.58A2.49,2.49,0,0,1,286.58,120.88Zm-3.81-1.21a1.83,1.83,0,0,0-.32,1.15,2.08,2.08,0,0,0,.53,1.35,1.48,1.48,0,0,0,1,.46,1.5,1.5,0,0,0,1.59-1.69,1.74,1.74,0,0,0-1.67-1.86A1.4,1.4,0,0,0,282.77,119.67Z"/><path class="cls-9" d="M290.19,123.34h-.91v-4.19h-1.59v-.75h4.09v.75h-1.59Z"/><path class="cls-9" d="M294.54,120.4h1.76v.73h-1.76v1.45h2.27l-.11.76h-3.06V118.4h2.83v.75h-1.93Z"/><path class="cls-9" d="M301.88,119.47a2,2,0,0,0-1.13-.35,1.56,1.56,0,0,0-1.58,1.71,1.83,1.83,0,0,0,.49,1.29,1.67,1.67,0,0,0,1.12.47,2,2,0,0,0,1.21-.36l.38.71a2.77,2.77,0,0,1-1.71.52,2.52,2.52,0,0,1-1.76-.73,2.56,2.56,0,0,1-.72-1.92,2.65,2.65,0,0,1,.81-1.88,2.69,2.69,0,0,1,1.76-.65,2.77,2.77,0,0,1,1.58.45Z"/><path class="cls-9" d="M307.18,122h-1.95l-.56,1.37h-.89l2.12-5h.71l2.09,5h-1Zm-1-2.46-.75,1.83h1.46Z"/><path class="cls-9" d="M213,207.57l-1.39.88.22,1.23-.63.4-.75-4.54.51-.32,3.75,2.65-.7.44Zm-1.79-1.32.29,1.65,1-.66Z"/><path class="cls-9" d="M216.45,201.81l1.33,2.11a1.6,1.6,0,0,1,.31,1.45,2.08,2.08,0,0,1-.84,1,1.79,1.79,0,0,1-1.66.29,1.88,1.88,0,0,1-.83-.8l-1.33-2.12.65-.41,1.34,2.11c.26.41.46.58.74.61a1.14,1.14,0,0,0,.68-.19c.37-.24.55-.48.55-.79a1.26,1.26,0,0,0-.26-.71l-1.34-2.11Z"/><path class="cls-9" d="M218,200.88c.48-.35.58-.42,1-.71a3.63,3.63,0,0,1,1.07-.45,2.11,2.11,0,0,1,2.32,2.87,1.94,1.94,0,0,1-.48.65,5.58,5.58,0,0,1-.64.5l-.3.19c-.28.17-.47.27-.81.44Zm2.54,2.57a2.23,2.23,0,0,0,.51-.28,1.34,1.34,0,0,0,.51-2,1.45,1.45,0,0,0-1.35-.69,2,2,0,0,0-.78.25l-.25.15-.12.08-.09.06Z"/><path class="cls-9" d="M225.34,201.13l-.65.41L222.46,198l.66-.41Z"/><path class="cls-9" d="M228.46,199.16l-.66.41-1.88-3-1.13.72-.34-.54,2.92-1.84.34.54-1.13.71Z"/><path class="cls-9" d="M232.94,193.88a2.08,2.08,0,0,1-.69,3,2.1,2.1,0,0,1-3-.71,2.14,2.14,0,0,1,.63-3A2.11,2.11,0,0,1,232.94,193.88Zm-3.27.86a1.59,1.59,0,0,0,.29,1,1.84,1.84,0,0,0,1,.73,1.29,1.29,0,0,0,1.31-2.06,1.45,1.45,0,0,0-2-.58A1.2,1.2,0,0,0,229.67,194.74Z"/><path class="cls-9" d="M233.21,191.26a9.69,9.69,0,0,1,.92-.66c.94-.59,1.69-.53,2.14.17a1.2,1.2,0,0,1,.12,1,1.39,1.39,0,0,1-.18.33l2,.89-.77.48-1.72-.8-.5.32.85,1.35-.66.42Zm1.72,1.27.63-.4a.71.71,0,0,0,.09-.9c-.25-.39-.67-.44-1.15-.14l-.09,0-.25.17Z"/><path class="cls-9" d="M240.11,191.81l-.66.42-2.22-3.53.65-.41Z"/><path class="cls-9" d="M244.05,186.87a2.08,2.08,0,0,1-.69,3,2.1,2.1,0,0,1-3-.71,2.14,2.14,0,0,1,.63-3A2.11,2.11,0,0,1,244.05,186.87Zm-3.27.86a1.51,1.51,0,0,0,.29,1,1.77,1.77,0,0,0,1,.73,1.3,1.3,0,0,0,1.32-2.06,1.47,1.47,0,0,0-2-.58A1.2,1.2,0,0,0,240.78,187.73Z"/><path class="cls-9" d="M243.3,216.73a1.32,1.32,0,0,0-.78.2,1.09,1.09,0,0,0-.3,1.58,1.28,1.28,0,0,0,.77.57,1.14,1.14,0,0,0,.82-.14,1.33,1.33,0,0,0,.57-.65l.48.27a2,2,0,0,1-.8.93,1.76,1.76,0,0,1-1.29.22,1.74,1.74,0,0,1-1.13-.85,1.83,1.83,0,0,1-.22-1.4,1.94,1.94,0,0,1,1.87-1.33Z"/><path class="cls-9" d="M247.3,216.23l-1.13.72.18,1-.52.32-.61-3.69.41-.27,3.06,2.16-.57.36Zm-1.46-1.08.24,1.34.85-.53Z"/><path class="cls-9" d="M253,213.74l-.53.34-1.41-1.77.34,2.44-.33.21-2-1.34,1,2-.47.3-1.43-3.12.39-.25,2.3,1.51-.38-2.71.39-.25Z"/><path class="cls-9" d="M253.54,211l1-.64.27.42-1,.65.53.84,1.32-.83.22.48-1.79,1.12-1.81-2.87,1.65-1,.27.44-1.12.7Z"/><path class="cls-9" d="M255.19,208.37a8,8,0,0,1,.76-.54c.76-.48,1.38-.43,1.74.14a1,1,0,0,1,.09.82.87.87,0,0,1-.14.27l1.64.73-.63.39-1.4-.65-.41.26.69,1.1-.53.34Zm1.41,1,.51-.33a.56.56,0,0,0,.07-.73c-.2-.32-.54-.37-.93-.12l-.07,0-.21.14Z"/><path class="cls-9" d="M260.82,208.82l-.54.34-1.81-2.88L259,206Z"/><path class="cls-9" d="M260.52,204.92l3,.89-1.23-1.95.49-.3,1.79,2.83-.26.28-3-.89,1.24,2-.49.31-1.79-2.83Z"/><path class="cls-9" d="M267.81,202.41a1.69,1.69,0,0,1-.56,2.45,1.71,1.71,0,0,1-2.43-.58,1.74,1.74,0,0,1,.52-2.43A1.71,1.71,0,0,1,267.81,202.41Zm-2.66.7a1.23,1.23,0,0,0,.23.78,1.44,1.44,0,0,0,.81.59,1,1,0,0,0,.76-.11,1,1,0,0,0,.31-1.56,1.19,1.19,0,0,0-1.65-.47A1,1,0,0,0,265.15,203.11Z"/><rect class="cls-23" x="241.8" y="143.24" width="7.82" height="4.31" transform="translate(-39.78 142.33) rotate(-30)"/><path class="cls-9" d="M243.22,149.9l-2.66-4.6,7.64-4.41,2.65,4.6Zm-1.29-4.24,1.65,2.87,5.91-3.41-1.66-2.87Z"/><rect class="cls-23" x="247.01" y="152.26" width="7.82" height="4.31" transform="translate(-43.59 146.15) rotate(-30)"/><path class="cls-9" d="M248.43,158.92l-2.66-4.6,7.64-4.41,2.66,4.61Zm-1.29-4.23,1.65,2.87,5.91-3.41L253,151.28Z"/><rect class="cls-23" x="252.22" y="161.29" width="7.82" height="4.31" transform="translate(-47.41 149.96) rotate(-30)"/><path class="cls-9" d="M253.64,168l-2.66-4.6,7.64-4.41,2.66,4.6Zm-1.29-4.24,1.66,2.87,5.9-3.41-1.66-2.87Z"/><polygon class="cls-23" points="274.55 155.3 270.86 157.43 267.78 159.21 265.62 155.47 269.21 153.4 272.39 151.57 274.55 155.3"/><path class="cls-9" d="M267.59,159.89l-2.65-4.6,7.63-4.41,2.66,4.6Zm-1.29-4.23,1.66,2.87,5.9-3.41-1.65-2.87Z"/><path class="cls-9" d="M283.67,190.69l-.57-.91.41-.26,1.41,2.23-.42.26-.62-1-1,.65.62,1-.41.26-1.4-2.23.41-.26.57.91Z"/><path class="cls-9" d="M285.7,189.51c.12-.07.13-.34,0-.49a.39.39,0,0,0-.54-.06.7.7,0,0,0-.28.42l-.32-.16a1.16,1.16,0,0,1,.5-.66.7.7,0,0,1,1,.13.6.6,0,0,1,0,.69.65.65,0,0,1,.75.29.85.85,0,0,1-.35,1.16,1.29,1.29,0,0,1-.9.2v-.38a.94.94,0,0,0,.64-.1.42.42,0,0,0,.18-.59.42.42,0,0,0-.37-.18.73.73,0,0,0-.33.14l-.2.12-.19-.29Z"/><path class="cls-9" d="M286.23,174.8l-.58-.91.42-.26,1.4,2.23-.41.26-.62-1-1,.66.62,1-.41.27-1.41-2.23.41-.26.58.91Z"/><path class="cls-9" d="M289.18,173.6l.35-.22.15.32-.32.2.35.55-.39.24-.34-.54-1,.59-.26-.25.3-2.1.28-.09Zm-.89-.55-.16,1.21.66-.42Z"/><path class="cls-9" d="M293.2,184.92l-.57-.91.41-.26,1.41,2.23-.42.26-.62-1-1,.66.62,1-.41.27-1.41-2.23.42-.26.57.91Z"/><path class="cls-9" d="M295,183.62a1.41,1.41,0,0,1,.47-.15.78.78,0,0,1,.79.37.89.89,0,0,1-.36,1.28,1.48,1.48,0,0,1-.74.21l-.07-.38a1,1,0,0,0,.55-.12.49.49,0,0,0,.2-.71.54.54,0,0,0-.56-.21,2.5,2.5,0,0,0-.4.17l0,0-.05,0,0,0-.46-1.1,1-.64.21.34-.68.43Z"/><path class="cls-9" d="M307,176.34l-.57-.91.41-.26,1.41,2.22-.41.26-.63-1-1,.66.63,1-.42.26-1.4-2.23.41-.26.57.91Z"/><path class="cls-9" d="M309.24,173.89a2.17,2.17,0,0,0-.37.7,1.41,1.41,0,0,0-.07.66.82.82,0,0,1,1-.47.81.81,0,0,1,.42.33.92.92,0,0,1,.11.8,1,1,0,0,1-1.75.11,1.67,1.67,0,0,1-.14-1.41,2.3,2.3,0,0,1,.42-.78ZM309,175.8c.2.31.47.41.72.26a.44.44,0,0,0,.12-.67.45.45,0,0,0-.66-.14.6.6,0,0,0-.23.35c0,.05,0,.08,0,.08A.64.64,0,0,0,309,175.8Z"/><path class="cls-9" d="M300.7,166.29l-.57-.91.41-.26,1.41,2.22-.42.26-.62-1-1,.66.62,1-.41.26-1.41-2.23.42-.26.57.91Z"/><path class="cls-9" d="M302.91,163.71l.18.14c0,.38.05.54.07.75,0,.41.07.73.13,1.19,0,.2,0,0,.09.71l-.48.18v-.08c-.07-.62-.11-1-.14-1.41,0-.29,0-.47-.05-.87l-1.07.67-.21-.33Z"/><path class="cls-9" d="M317.4,170.05l-.57-.91.41-.26,1.41,2.23-.42.26-.62-1-1,.66.62,1-.41.27-1.41-2.23.42-.26.57.91Z"/><path class="cls-9" d="M320.25,168.65a.65.65,0,0,1,.46.3.81.81,0,0,1-.37,1.16.84.84,0,0,1-1.2-.13.68.68,0,0,1,0-.62.92.92,0,0,1,.13-.21.6.6,0,0,1-.64-.26.74.74,0,0,1,.3-1,.91.91,0,0,1,.65-.18.57.57,0,0,1,.42.27.59.59,0,0,1,0,.72A1.07,1.07,0,0,1,320.25,168.65Zm-.64.46a.54.54,0,0,0-.07.62.44.44,0,0,0,.6.11.39.39,0,0,0,.16-.59.51.51,0,0,0-.52-.16Zm0-.39a.49.49,0,0,0,0-.52.36.36,0,0,0-.51-.07.33.33,0,0,0-.12.47.51.51,0,0,0,.45.14Z"/><path class="cls-9" d="M376.92,54l.8.16-1.9,4.34h-.69l-1.89-4.34.87-.16,1.41,3.35Z"/><path class="cls-9" d="M384.4,58.52h-.86l-.34-2.92-1.39,2.92h-.55l-1.37-2.88-.34,2.88h-.77l.62-4.41H380l1.56,3.25,1.55-3.25h.64Z"/><path class="cls-9" d="M369.91,76.9h.91v.36h-.91V78h1.18l-.06.37h-1.59V75.91h1.47v.37h-1Z"/><path class="cls-9" d="M373.38,76.44a.87.87,0,0,0-.55-.21.33.33,0,0,0-.34.28c0,.15.07.24.34.37l.25.11c.39.18.53.37.53.68a.79.79,0,0,1-.87.73,1.41,1.41,0,0,1-.83-.26l.07-.43a1.08,1.08,0,0,0,.69.31.35.35,0,0,0,.42-.34c0-.15-.09-.24-.34-.35a2.42,2.42,0,0,1-.48-.24.61.61,0,0,1-.28-.54.75.75,0,0,1,.8-.7,1.21,1.21,0,0,1,.74.23Z"/><path class="cls-9" d="M376.57,76.51a1,1,0,0,0-.68-.25.82.82,0,0,0-.66.29.84.84,0,0,0-.18.59.93.93,0,0,0,.32.68,1,1,0,0,0,.56.2.82.82,0,0,0,.47-.1V77.4h-.55l0-.34h1v1.06a1.64,1.64,0,0,1-1,.28,1.26,1.26,0,0,1-1.36-1.28,1.29,1.29,0,0,1,1.34-1.27,1.37,1.37,0,0,1,1,.33Z"/><path class="cls-9" d="M377.94,75.93a6.16,6.16,0,0,1,.7,0c.68,0,1.05.26,1.05.74a.68.68,0,0,1-.27.54.61.61,0,0,1-.2.1l.76,1.07h-.56l-.63-.93h-.37v.93h-.48Zm.48,1.16h.46a.42.42,0,0,0,.34-.42c0-.27-.2-.43-.55-.43h-.25Z"/><path class="cls-9" d="M381.35,78.34h-.48V75.91h.48Z"/><path class="cls-9" d="M385.4,78.34h-.47l-.19-1.61L384,78.34h-.3l-.76-1.59-.18,1.59h-.43l.35-2.43H383l.86,1.79.85-1.79h.35Z"/><path class="cls-9" d="M387.93,77.67h-1l-.29.67h-.46l1.1-2.47h.37l1.08,2.47h-.51Zm-.5-1.21-.39.9h.76Z"/><path class="cls-9" d="M377.05,98.74l.81.16-1.9,4.34h-.69l-1.89-4.34.87-.16,1.41,3.35Z"/><path class="cls-9" d="M382.6,100.63v-1.8h.86v4.41h-.86v-1.95h-2.18v1.95h-.86V98.83h.86v1.8Z"/><path class="cls-9" d="M403.23,88.53h-1.4l-.4.93h-.63l1.51-3.41h.51l1.5,3.41h-.7Zm-.69-1.67L402,88.1h1.05Z"/><path class="cls-9" d="M406.2,88.93h1.53l-.08.53h-2.11V86.11h.66Z"/><path class="cls-9" d="M409,86.13a8.48,8.48,0,0,1,1-.06c.79,0,1.27.33,1.27.87,0,.31-.15.52-.53.72a.86.86,0,0,1,.76.87c0,.61-.54,1-1.44,1a8.61,8.61,0,0,1-1-.06Zm.63,1.4h.51a.54.54,0,0,0,.46-.5c0-.3-.24-.51-.64-.51h-.33Zm0,1.49a3.7,3.7,0,0,0,.47,0c.44,0,.7-.18.7-.5a.56.56,0,0,0-.35-.51,1.23,1.23,0,0,0-.43-.06h-.39Z"/><path class="cls-9" d="M413.55,87.47h1.26V88h-1.26v1h1.63l-.08.52h-2.19V86.11h2v.51h-1.38Z"/><path class="cls-9" d="M416.48,86.13a7.07,7.07,0,0,1,1-.06c.94,0,1.45.37,1.45,1a.93.93,0,0,1-.37.74,1.17,1.17,0,0,1-.28.15l1.05,1.47h-.78l-.87-1.28h-.51v1.28h-.66Zm.66,1.6h.63a.57.57,0,0,0,.48-.57c0-.38-.28-.6-.76-.6h-.35Z"/><path class="cls-9" d="M422.85,86.84a1.46,1.46,0,0,0-.8-.24,1.09,1.09,0,0,0-1.14,1.16,1.19,1.19,0,0,0,.36.88,1.26,1.26,0,0,0,.79.31,1.48,1.48,0,0,0,.87-.24l.27.48a2,2,0,0,1-1.22.35,1.9,1.9,0,0,1-1.26-.49,1.72,1.72,0,0,1-.52-1.3,1.74,1.74,0,0,1,.59-1.28A2,2,0,0,1,422,86a2.16,2.16,0,0,1,1.14.3Z"/><path class="cls-9" d="M426.65,88.53h-1.4l-.39.93h-.64l1.51-3.41h.52l1.49,3.41H427ZM426,86.86l-.53,1.24h1Z"/><path class="cls-5" d="M102.58,102.08l0,0c.14-.11.34-.24.43-.3a1.19,1.19,0,0,1,.83-.24.8.8,0,0,1,.57.41.79.79,0,0,1,0,.85,1.32,1.32,0,0,1-.47.42l-.21.12.5.81-.42.26-1.37-2.23Zm1,.91.21-.12c.32-.19.41-.45.26-.7s-.42-.29-.74-.09l-.21.13Z"/><path class="cls-5" d="M106.85,101.67l-.88.54.13.78-.4.24-.44-2.85.32-.2,2.34,1.68-.44.28Zm-1.12-.84.18,1,.66-.4Z"/><path class="cls-5" d="M109.22,101.06l-.41.26-1.17-1.9-.72.45-.21-.34,1.85-1.15.21.35-.71.44Z"/><path class="cls-5" d="M111.2,99.84l-.42.26-1.38-2.23.42-.26Z"/><path class="cls-5" d="M113.7,96.76a1.3,1.3,0,0,1-.45,1.89,1.33,1.33,0,0,1-1.87-.47,1.34,1.34,0,0,1,.42-1.87A1.32,1.32,0,0,1,113.7,96.76Zm-2.06.52a1.09,1.09,0,0,0,.18.61,1.14,1.14,0,0,0,.62.46.82.82,0,0,0,.59-.08.79.79,0,0,0,.25-1.21.91.91,0,0,0-1.27-.37A.74.74,0,0,0,111.64,97.28Z"/><path class="cls-5" d="M115.13,94.35a7.76,7.76,0,0,1,.66-.45,2.19,2.19,0,0,1,.67-.27,1.24,1.24,0,0,1,1.37.64,1.3,1.3,0,0,1,.08,1.18,1.21,1.21,0,0,1-.31.4,3.68,3.68,0,0,1-.41.31l-.19.12a3.44,3.44,0,0,1-.51.27ZM116.71,96a1.88,1.88,0,0,0,.33-.18.91.91,0,0,0,.49-.65,1,1,0,0,0-.16-.63.92.92,0,0,0-.85-.45,1.62,1.62,0,0,0-.49.15l-.16.1-.07.05a.17.17,0,0,0-.06,0Z"/><path class="cls-5" d="M119,93.22l.79-.49.21.33-.79.49.4.65,1-.63.17.37-1.39.86L118,92.57l1.27-.79.21.34-.87.54Z"/><path class="cls-5" d="M125.59,91.7a2.25,2.25,0,0,1-1,.13l-.33,0A1.37,1.37,0,0,1,124,92a1.32,1.32,0,0,1-1.87-.46,1.36,1.36,0,0,1-.12-1.25,1.46,1.46,0,0,1,.53-.62,1.32,1.32,0,0,1,1.14-.18,1.46,1.46,0,0,1,.77.62,1.34,1.34,0,0,1,.12,1.25,2.4,2.4,0,0,0,1.19-.16Zm-3.23-1a1,1,0,0,0,.17.61,1.12,1.12,0,0,0,.62.46.73.73,0,0,0,.59-.08.79.79,0,0,0,.25-1.2.92.92,0,0,0-1.27-.38A.74.74,0,0,0,122.36,90.66Z"/><path class="cls-5" d="M126.51,87.31l.82,1.34a1,1,0,0,1,.19.91,1.33,1.33,0,0,1-.54.6,1.12,1.12,0,0,1-1,.18,1.19,1.19,0,0,1-.52-.51l-.83-1.34.42-.26.83,1.34c.16.26.28.36.46.39a.8.8,0,0,0,.43-.12c.23-.15.35-.3.35-.49a.84.84,0,0,0-.16-.45l-.83-1.34Z"/><path class="cls-5" d="M129.24,88.7l-.41.25-1.38-2.23.41-.25Z"/><path class="cls-5" d="M129,85.69l2.32.7-.93-1.51.38-.23,1.36,2.2-.2.21-2.33-.7.93,1.52-.38.23-1.35-2.2Z"/><path class="cls-5" d="M134.15,85.67l-.41.25L132.57,84l-.72.44-.21-.34L133.49,83l.21.34-.71.44Z"/><path class="cls-5" d="M137,82.37a1.3,1.3,0,0,1-.45,1.89,1.37,1.37,0,1,1,.45-1.89Zm-2.06.52a1,1,0,0,0,.18.61,1.15,1.15,0,0,0,.61.46.84.84,0,0,0,.6-.08.8.8,0,0,0,.25-1.2.92.92,0,0,0-1.27-.38A.74.74,0,0,0,134.94,82.89Z"/><path class="cls-5" d="M132.14,147.8l.05,0a4.07,4.07,0,0,1,.43-.29,1.21,1.21,0,0,1,.83-.25.8.8,0,0,1,.57.41.79.79,0,0,1,0,.85,1.23,1.23,0,0,1-.47.42l-.21.12.5.81-.42.26L132,147.87Zm1,.9.21-.12c.32-.19.41-.45.26-.69s-.42-.3-.74-.1l-.21.14Z"/><path class="cls-5" d="M136.41,147.38l-.88.54.13.78-.4.25-.44-2.86.32-.2,2.34,1.69-.44.27Zm-1.12-.84.18,1,.66-.41Z"/><path class="cls-5" d="M138.78,146.77l-.41.26-1.17-1.89-.72.44-.21-.34,1.85-1.14.21.34-.71.44Z"/><path class="cls-5" d="M140.75,145.56l-.41.25L139,143.58l.42-.26Z"/><path class="cls-5" d="M143.26,142.47a1.3,1.3,0,0,1-.45,1.89,1.32,1.32,0,0,1-1.87-.47,1.35,1.35,0,0,1,.42-1.87A1.32,1.32,0,0,1,143.26,142.47Zm-2.06.52a1,1,0,0,0,.18.61,1.14,1.14,0,0,0,.62.46.82.82,0,0,0,.59-.08.79.79,0,0,0,.25-1.2.92.92,0,0,0-1.27-.38A.74.74,0,0,0,141.2,143Z"/><path class="cls-5" d="M144.69,140.06a7.76,7.76,0,0,1,.66-.45,2.19,2.19,0,0,1,.67-.27,1.24,1.24,0,0,1,1.37.64,1.3,1.3,0,0,1,.08,1.18,1.11,1.11,0,0,1-.31.4,3.81,3.81,0,0,1-.41.32l-.19.11a3.44,3.44,0,0,1-.51.27Zm1.58,1.63a1.74,1.74,0,0,0,.33-.17,1,1,0,0,0,.49-.66,1,1,0,0,0-.16-.63.9.9,0,0,0-.85-.44,1.16,1.16,0,0,0-.49.15l-.16.09-.07.05-.06,0Z"/><path class="cls-5" d="M148.51,138.93l.79-.49.21.33-.79.49.4.66,1-.64.17.38-1.39.85-1.38-2.23,1.28-.79.21.34-.87.54Z"/><path class="cls-5" d="M152.94,135.62a1.09,1.09,0,0,0-.61.15.85.85,0,0,0-.24,1.22,1,1,0,0,0,.59.45.92.92,0,0,0,.63-.1,1.05,1.05,0,0,0,.45-.51l.37.22a1.49,1.49,0,0,1-.63.71,1.32,1.32,0,0,1-1,.16,1.37,1.37,0,0,1-.87-.66,1.32,1.32,0,0,1,.45-1.86,1.52,1.52,0,0,1,.85-.24Z"/><path class="cls-5" d="M155.58,133.32l.82,1.34a1,1,0,0,1,.19.91,1.3,1.3,0,0,1-.54.61,1.13,1.13,0,0,1-1.05.17,1.17,1.17,0,0,1-.51-.51l-.83-1.34.42-.26.82,1.34c.17.26.29.37.47.39a.74.74,0,0,0,.43-.12.59.59,0,0,0,.35-.49.84.84,0,0,0-.16-.45l-.83-1.33Z"/><path class="cls-5" d="M158.74,133.59l-.88.55.13.77-.4.25-.44-2.86.32-.2,2.34,1.69-.44.27Zm-1.12-.84.18,1,.66-.41Z"/><path class="cls-5" d="M159.21,131.09a6.48,6.48,0,0,1,.59-.41c.59-.37,1.07-.33,1.34.12a.74.74,0,0,1,.07.63.85.85,0,0,1-.11.21l1.26.57-.49.31-1.08-.52-.32.2.53.85-.41.26Zm1.08.81.4-.25a.43.43,0,0,0,.06-.56c-.15-.25-.42-.29-.72-.1l-.06,0-.16.11Z"/><path class="cls-5" d="M163.89,131.27l-.41.25-1.17-1.89-.72.45-.21-.35,1.85-1.14.21.34-.71.45Z"/><path class="cls-5" d="M166.74,128a1.3,1.3,0,0,1-.45,1.89,1.37,1.37,0,1,1,.45-1.89Zm-2.06.52a1,1,0,0,0,.18.61,1.11,1.11,0,0,0,.61.46.81.81,0,0,0,.85-1.28.93.93,0,0,0-1.27-.38A.75.75,0,0,0,164.68,128.49Z"/><path class="cls-5" d="M160.65,193.66l0,0c.14-.11.34-.24.43-.3a1.22,1.22,0,0,1,.83-.23.8.8,0,0,1,.57.41.81.81,0,0,1,0,.85,1.23,1.23,0,0,1-.47.42l-.22.12.49.81-.41.25-1.35-2.23Zm1,.92.21-.12c.32-.19.41-.45.27-.69s-.42-.3-.74-.11a1.52,1.52,0,0,0-.21.14Z"/><path class="cls-5" d="M164.92,193.29l-.88.53.12.78-.4.24-.42-2.86.33-.2L166,193.5l-.44.26Zm-1.11-.86.17,1,.66-.4Z"/><path class="cls-5" d="M167.3,192.71l-.42.25-1.14-1.91-.73.44-.2-.34,1.86-1.13.21.35-.73.43Z"/><path class="cls-5" d="M169.28,191.51l-.41.25-1.36-2.24.42-.26Z"/><path class="cls-5" d="M171.82,188.45a1.3,1.3,0,0,1-.46,1.88,1.37,1.37,0,1,1,.46-1.88Zm-2.06.5a1,1,0,0,0,.17.61,1.09,1.09,0,0,0,.61.47.8.8,0,0,0,.6-.08.79.79,0,0,0,.25-1.2.91.91,0,0,0-1.26-.39A.74.74,0,0,0,169.76,189Z"/><path class="cls-5" d="M173.28,186.05a7.37,7.37,0,0,1,.66-.43,2.25,2.25,0,0,1,.68-.27A1.24,1.24,0,0,1,176,186a1.29,1.29,0,0,1,.07,1.19,1.18,1.18,0,0,1-.31.39,3.68,3.68,0,0,1-.41.31l-.19.12-.51.26Zm1.56,1.65a1.74,1.74,0,0,0,.33-.17,1,1,0,0,0,.5-.65,1,1,0,0,0-1-1.08,1.3,1.3,0,0,0-.49.14L174,186l-.08.05-.05,0Z"/><path class="cls-5" d="M177.11,185l.8-.48.2.33-.8.48.4.66,1-.62.16.37-1.4.84-1.35-2.24,1.29-.78.2.34-.87.53Z"/><path class="cls-5" d="M181.15,182a.84.84,0,0,0-.6.09.33.33,0,0,0-.15.44c.08.15.2.19.5.16l.28,0c.46,0,.68.05.86.35a.82.82,0,0,1-.37,1.13,1.41,1.41,0,0,1-.87.2l-.17-.44a1.07,1.07,0,0,0,.78-.07.37.37,0,0,0,.17-.54c-.08-.13-.21-.17-.49-.14a3.43,3.43,0,0,1-.56,0,.67.67,0,0,1-.54-.36.77.77,0,0,1,.31-1.06,1.17,1.17,0,0,1,.77-.18Z"/><path class="cls-5" d="M182.89,181.48l.8-.48.2.33-.8.49.4.65,1-.62.16.38-1.4.84-1.35-2.25,1.29-.78.2.35-.87.53Z"/><path class="cls-5" d="M185.75,178.46l.44-.16-.16,1.5,1.54.62-.37.36-1.22-.52-.13,1.33-.45.15.18-1.64-1.43-.57.38-.34,1.1.46Z"/><path class="cls-5" d="M189.45,179.35l-.42.25-1.15-1.9-.72.43-.21-.34,1.87-1.12.2.34-.72.44Z"/><path class="cls-5" d="M192.33,176.08a1.36,1.36,0,1,1-2.33,1.4,1.36,1.36,0,1,1,2.33-1.4Zm-2.06.5a.92.92,0,0,0,.17.61,1.09,1.09,0,0,0,.61.47.77.77,0,0,0,.59-.07.8.8,0,0,0,.26-1.21.92.92,0,0,0-1.27-.38A.75.75,0,0,0,190.27,176.58Z"/><path class="cls-9" d="M102.54,251.15a1,1,0,0,0-.56-.3.83.83,0,0,0-1,.74.94.94,0,0,0,.13.72.9.9,0,0,0,.54.35,1,1,0,0,0,.66-.07l.13.41a1.5,1.5,0,0,1-.94.11,1.43,1.43,0,0,1-.85-.55,1.45,1.45,0,0,1-.19-1.08,1.41,1.41,0,0,1,.61-.9,1.45,1.45,0,0,1,1-.17,1.49,1.49,0,0,1,.78.39Z"/><path class="cls-9" d="M106,252.55a1.31,1.31,0,0,1-1.6,1.1,1.38,1.38,0,0,1,.5-2.71A1.32,1.32,0,0,1,106,252.55Zm-1.87-1a1,1,0,0,0-.28.57,1.14,1.14,0,0,0,.15.75.75.75,0,0,0,.49.34.78.78,0,0,0,1-.72.91.91,0,0,0-.68-1.13A.74.74,0,0,0,104.12,251.55Z"/><path class="cls-9" d="M107.24,251.46a5.94,5.94,0,0,1,.71.09c.69.13,1,.48.91,1a.73.73,0,0,1-.38.51.68.68,0,0,1-.22.08l.55,1.27-.56-.11-.45-1.1-.37-.07-.19,1-.48-.09Zm.25,1.32.46.09a.44.44,0,0,0,.43-.38c.05-.28-.12-.49-.47-.55l-.06,0-.19,0Z"/><path class="cls-9" d="M110.18,254.67l-.47-.09.48-2.58.48.09Z"/><path class="cls-9" d="M112.07,252.31l1.23,2.08.33-1.74.44.08-.48,2.54-.29,0-1.25-2.09-.33,1.76-.44-.09.48-2.53Z"/><path class="cls-9" d="M116.38,255.09l-1-.19-.42.66-.47-.09,1.6-2.41.37.07L117,256l-.51-.1Zm-.26-1.38-.57.89.76.14Z"/><path class="cls-5" d="M191.16,247.5,192,247l.19.34-.8.47.39.66,1-.61.15.38-1.4.82-1.33-2.26,1.29-.76.21.34-.88.52Z"/><path class="cls-5" d="M192.73,245.29l2.3.75-.9-1.53.38-.22,1.31,2.22-.2.21L193.3,246l.91,1.54-.38.22-1.32-2.22Z"/><path class="cls-5" d="M197.84,245.37l-.42.25-1.13-1.92-.73.43-.2-.34,1.87-1.11.2.35-.72.42Z"/><path class="cls-5" d="M198.08,242.19a6,6,0,0,1,.6-.39c.6-.36,1.07-.31,1.34.14a.76.76,0,0,1,0,.64.68.68,0,0,1-.11.2l1.25.6-.5.29-1.06-.53-.33.19.51.86-.42.25Zm1.06.83.41-.23a.44.44,0,0,0,.07-.57c-.15-.25-.41-.29-.72-.11l-.06,0-.16.1Z"/><path class="cls-5" d="M203,241.48l-.89.52.11.78-.4.24-.39-2.87.33-.19,2.3,1.73-.44.27Zm-1.11-.87.16,1,.67-.39Z"/><path class="cls-5" d="M203.52,239c.31-.21.37-.25.67-.43a2.31,2.31,0,0,1,.68-.25,1.25,1.25,0,0,1,1.35.66,1.3,1.3,0,0,1,.06,1.18,1.4,1.4,0,0,1-.32.4,2.67,2.67,0,0,1-.41.3l-.2.12c-.17.1-.3.16-.51.26Zm1.55,1.67a1.74,1.74,0,0,0,.33-.17.85.85,0,0,0,.36-1.28.94.94,0,0,0-.84-.46,1.3,1.3,0,0,0-.49.14l-.16.09-.08.05-.06,0Z"/><path class="cls-5" d="M208.58,238.18l-.89.53.12.78-.41.24-.39-2.87.33-.19,2.31,1.73-.45.26Zm-1.1-.86.15,1,.67-.4Z"/><path class="cls-9" d="M105.92,291.7a.91.91,0,0,0-.59-.16.35.35,0,0,0-.31.34c0,.17.11.26.39.36l.27.09c.42.15.59.33.63.67a.83.83,0,0,1-.81.88,1.37,1.37,0,0,1-.87-.17l0-.48a1.07,1.07,0,0,0,.74.26.37.37,0,0,0,.38-.42c0-.16-.12-.25-.39-.34a1.94,1.94,0,0,1-.51-.2.67.67,0,0,1-.35-.55.77.77,0,0,1,.72-.83,1.16,1.16,0,0,1,.78.15Z"/><path class="cls-9" d="M108.83,292.7l-1,.12-.21.76-.47.05.81-2.78.37,0,1.41,2.52-.52.06Zm-.65-1.24-.29,1,.78-.09Z"/><path class="cls-9" d="M110.61,290.55l1.8,1.61-.2-1.75.44-.06.3,2.57-.28.11-1.81-1.63.21,1.78-.45.05-.29-2.57Z"/><path class="cls-9" d="M115.32,290.05h.06l.51-.09a1.23,1.23,0,0,1,.86.13.81.81,0,0,1,.34.61.83.83,0,0,1-.37.77,1.21,1.21,0,0,1-.6.19h-.25l.11.95-.48.06-.3-2.6Zm.51,1.24.24,0c.37,0,.56-.23.53-.52s-.25-.44-.63-.4l-.24,0Z"/><path class="cls-9" d="M118.58,290.74l.93-.11,0,.39-.92.1.08.77,1.2-.14v.41l-1.62.18-.3-2.6,1.5-.17,0,.39-1,.12Z"/><path class="cls-9" d="M120.62,289.45c.37-.07.44-.09.78-.13a2.56,2.56,0,0,1,.73,0,1.26,1.26,0,0,1,1,1.16,1.22,1.22,0,0,1-.87,1.34l-.5.11-.23,0a3.44,3.44,0,0,1-.57,0Zm.74,2.14a1.59,1.59,0,0,0,.37,0,1,1,0,0,0,.72-.39,1,1,0,0,0-.45-1.4,1.43,1.43,0,0,0-.51-.07l-.19,0h-.15Z"/><path class="cls-9" d="M124,289.06a5.72,5.72,0,0,1,.7-.12c.7-.08,1.11.16,1.17.68a.73.73,0,0,1-.21.6.62.62,0,0,1-.19.14l.9,1.05-.57.07-.76-.92-.37,0,.11,1-.48,0Zm.63,1.19.46-.05a.43.43,0,0,0,.3-.49c0-.29-.26-.43-.61-.39h-.06l-.19,0Z"/><path class="cls-9" d="M129.55,289.73a1.31,1.31,0,0,1-1.21,1.52,1.37,1.37,0,1,1,1.21-1.52Zm-2.08-.41a1,1,0,0,0-.1.63,1.13,1.13,0,0,0,.36.68.83.83,0,0,0,.57.18.8.8,0,0,0,.74-1,.92.92,0,0,0-1-.88A.76.76,0,0,0,127.47,289.32Z"/><path class="cls-9" d="M382.07,183.76a1,1,0,0,0-.56.23.32.32,0,0,0-.08.43c.09.12.22.13.5,0l.26-.09c.42-.14.65-.1.85.13a.8.8,0,0,1-.2,1.12,1.43,1.43,0,0,1-.8.38l-.22-.36a1.14,1.14,0,0,0,.73-.24.37.37,0,0,0,.1-.53c-.1-.11-.23-.12-.49,0a2.21,2.21,0,0,1-.53.15.56.56,0,0,1-.55-.2.75.75,0,0,1,.15-1,1.3,1.3,0,0,1,.72-.34Z"/><path class="cls-9" d="M384.94,182.8l-.78.69.22.68-.35.32-.76-2.54.28-.25,2.42,1.05-.38.35Zm-1.17-.53.29.91.58-.51Z"/><path class="cls-9" d="M385.28,180.16l2.28.15-1.06-1.18.33-.3,1.54,1.73-.16.24-2.29-.15,1.07,1.2-.34.29-1.54-1.73Z"/><path class="cls-9" d="M388.83,177l.05,0,.37-.37a1.34,1.34,0,0,1,.76-.4.7.7,0,0,1,.59.25.72.72,0,0,1,.09.79,1.69,1.69,0,0,1-.39.49l-.19.15.57.64-.37.33-1.56-1.75Zm1.05.62.19-.15c.27-.25.33-.51.16-.7s-.43-.18-.71.07l-.18.17Z"/><path class="cls-9" d="M391.83,175.64l.69-.62.23.26-.69.62.46.52.9-.8.2.3L392.4,177l-1.57-1.76,1.13-1,.23.27-.76.68Z"/><path class="cls-9" d="M392.82,173.49c.26-.26.32-.32.57-.55a2.44,2.44,0,0,1,.61-.39,1.13,1.13,0,0,1,1.58,1.36,1.38,1.38,0,0,1-.24.44,4.12,4.12,0,0,1-.35.37l-.17.15a4.43,4.43,0,0,1-.45.36Zm1.69,1.16a1.47,1.47,0,0,0,.29-.22,1,1,0,0,0,.39-.71.77.77,0,0,0-.23-.55.83.83,0,0,0-.85-.23,1.45,1.45,0,0,0-.45.25l-.14.12-.07.06,0,0Z"/><path class="cls-9" d="M395.33,171.25a5.88,5.88,0,0,1,.51-.5c.52-.46,1-.53,1.28-.18a.62.62,0,0,1,.14.57.66.66,0,0,1-.08.22l1.26.25L398,172l-1.09-.24-.28.25.6.68-.36.32Zm1.11.52.35-.31a.42.42,0,0,0,0-.54c-.18-.19-.44-.17-.7.07l0,0-.14.13Z"/><path class="cls-9" d="M400.19,168.48a1.24,1.24,0,0,1-.2,1.83,1.25,1.25,0,0,1-1.83,0,1.36,1.36,0,0,1,2-1.8Zm-1.89.92a.82.82,0,0,0,.24.52.91.91,0,0,0,.64.29.8.8,0,0,0,.55-.2.75.75,0,0,0,.1-1.16.86.86,0,0,0-1.25-.07A.77.77,0,0,0,398.3,169.4Z"/><path class="cls-9" d="M359.59,228.55l-.13-.47,1.63-.64-1.88-.3-.08-.3,1.45-1.19-1.71.27-.11-.42,2.62-.35.09.34-1.63,1.36,2.1.33.09.34Z"/><path class="cls-9" d="M361.81,231.7a1.36,1.36,0,1,1-.71-2.63,1.34,1.34,0,0,1,1.67.93A1.32,1.32,0,0,1,361.81,231.7Zm.08-2.12a1,1,0,0,0-.63,0,1.13,1.13,0,0,0-.62.46.78.78,0,0,0-.09.6.79.79,0,0,0,1.09.57.92.92,0,0,0,.72-1.11A.75.75,0,0,0,361.89,229.58Z"/><path class="cls-9" d="M362.05,237.52l-.13-.47,2.14-.58-.22-.82.39-.1.57,2.09-.39.11-.22-.81Z"/><path class="cls-9" d="M364.16,239.34l.25.9-.38.1-.24-.9-.74.2.31,1.16-.4.06-.43-1.57,2.53-.7.4,1.46-.39.1-.27-1Z"/><path class="cls-9" d="M366.28,243.05l-.17.13-2.33-.9.41,1.48-.42.05-.55-2,.17-.13,2.34.89-.36-1.28.39-.11Z"/><path class="cls-9" d="M367.16,246.28l-1.52.41a1,1,0,0,1-.92-.08,1.22,1.22,0,0,1-.43-.68,1.11,1.11,0,0,1,.13-1.05,1.08,1.08,0,0,1,.63-.35l1.52-.42.13.47-1.52.42c-.29.08-.43.17-.5.33a.76.76,0,0,0,0,.45c.08.27.19.42.37.47a.82.82,0,0,0,.48,0l1.51-.41Z"/><path class="cls-9" d="M365.73,251l-.13-.47,1.62-.64-1.88-.3-.08-.3,1.45-1.19-1.7.26-.12-.41,2.63-.36.09.35L366,249.27l2.09.33.1.34Z"/><path class="cls-9" d="M367.11,253.27l-.27-1-.78-.09-.13-.46,2.87.38.1.37-2.28,1.77-.13-.5Zm1.13-.84-1.05-.12.21.74Z"/><path class="cls-9" d="M363.33,234.33a1,1,0,0,0-.05-.63.85.85,0,0,0-1.18-.44,1,1,0,0,0-.55.51.91.91,0,0,0,0,.65,1,1,0,0,0,.43.53l-.28.33a1.49,1.49,0,0,1-.61-.74,1.33,1.33,0,0,1,.81-1.78,1.38,1.38,0,0,1,1.11,0,1.49,1.49,0,0,1,.78,1.62Z"/><path class="cls-9" d="M267,229.71l1.24-.78.32.51-1.23.78.64,1,1.6-1,.26.58-2.15,1.37-2.21-3.47,2-1.27.34.53-1.36.86Z"/><path class="cls-9" d="M271.3,226.06a1.45,1.45,0,0,0-.94.17.53.53,0,0,0-.2.69c.12.24.32.3.79.24l.44,0c.7-.08,1.06.06,1.35.51a1.31,1.31,0,0,1-.53,1.8,2.23,2.23,0,0,1-1.36.34l-.29-.68a1.76,1.76,0,0,0,1.22-.14.58.58,0,0,0,.25-.85c-.13-.22-.34-.27-.78-.21a3.51,3.51,0,0,1-.87.06,1,1,0,0,1-.86-.53,1.22,1.22,0,0,1,.44-1.68,1.84,1.84,0,0,1,1.22-.31Z"/><path class="cls-9" d="M276.14,226.81l-.65.41-1.87-2.94-1.12.71-.33-.53,2.88-1.83.33.53-1.11.71Z"/><path class="cls-9" d="M279.29,223.46l-1.37.87.22,1.21-.63.4-.75-4.48.5-.32,3.71,2.6-.69.44Zm-1.78-1.31.3,1.63,1-.65Z"/><path class="cls-9" d="M282.68,218.84a1.68,1.68,0,0,0-.95.25,1.32,1.32,0,0,0-.35,1.92,1.47,1.47,0,0,0,.93.68,1.33,1.33,0,0,0,1-.17,1.6,1.6,0,0,0,.69-.79l.58.33a2.28,2.28,0,0,1-1,1.12,2.12,2.12,0,0,1-1.57.28,2.15,2.15,0,0,1-1.36-1,2.07,2.07,0,0,1,.67-2.93,2.29,2.29,0,0,1,1.31-.39Z"/><path class="cls-9" d="M286.66,220.12l-.65.41-2.2-3.47.64-.41Z"/><path class="cls-9" d="M290.53,215.23a2.05,2.05,0,0,1-.66,3,2.08,2.08,0,0,1-2.95-.7,2.11,2.11,0,0,1,.62-2.94A2.08,2.08,0,0,1,290.53,215.23Zm-3.22.86a1.52,1.52,0,0,0,.29.95,1.75,1.75,0,0,0,1,.72,1.33,1.33,0,0,0,.93-.14,1.25,1.25,0,0,0,.36-1.9,1.44,1.44,0,0,0-2-.56A1.18,1.18,0,0,0,287.31,216.09Z"/><path class="cls-9" d="M291.14,212.32l3.64,1.06L293.29,211l.6-.38,2.17,3.42-.31.34-3.67-1.06,1.5,2.37-.59.37-2.17-3.42Z"/><path class="cls-9" d="M299.07,210.89l-1.37.87.22,1.21-.63.4-.75-4.48.5-.32,3.71,2.6-.69.44Zm-1.78-1.3.3,1.62,1-.65Z"/><path class="cls-9" d="M306,207.86l-.64.4-1.71-2.13.42,3-.41.26-2.46-1.62,1.19,2.43-.58.37L300,206.75l.48-.31,2.78,1.82-.47-3.29.48-.3Z"/><path class="cls-9" d="M307.92,206.62l-.64.41-2.21-3.48.65-.41Z"/><path class="cls-9" d="M308.72,203.21l1.24-.79.32.52-1.23.78.65,1,1.59-1,.27.58-2.16,1.37-2.21-3.48,2-1.26.34.53-1.35.86Z"/><path class="cls-9" d="M311.06,199.67l3.64,1.05-1.49-2.34.6-.38,2.17,3.42-.31.35L312,200.7l1.5,2.37-.59.38L310.74,200Z"/><path class="cls-9" d="M319.08,199.53l-.65.41L316.56,197l-1.12.71-.33-.53,2.88-1.83.33.53-1.11.71Z"/><path class="cls-9" d="M323.48,194.3a2.13,2.13,0,1,1-3.61,2.28,2.14,2.14,0,1,1,3.61-2.28Zm-3.22.86a1.48,1.48,0,0,0,.29,1,1.76,1.76,0,0,0,1,.71,1.27,1.27,0,0,0,.93-.13,1.25,1.25,0,0,0,.37-1.9,1.44,1.44,0,0,0-2-.56A1.15,1.15,0,0,0,320.26,195.16Z"/><path class="cls-9" d="M248,287.31a.93.93,0,0,0,0-.62.84.84,0,0,0-1.15-.47,1,1,0,0,0-.55.49.94.94,0,0,0,0,.64,1,1,0,0,0,.41.54l-.28.32a1.49,1.49,0,0,1-.58-.75,1.32,1.32,0,0,1,.85-1.73,1.32,1.32,0,0,1,1.74.8,1.52,1.52,0,0,1,.07.87Z"/><path class="cls-9" d="M249.72,290.34l-1.48.56a1,1,0,0,1-.93,0,1.31,1.31,0,0,1-.49-.64,1.14,1.14,0,0,1,0-1.06,1.19,1.19,0,0,1,.6-.41l1.48-.55.17.46-1.47.55c-.29.11-.42.21-.47.38a.68.68,0,0,0,0,.44c.1.26.23.4.41.44a.82.82,0,0,0,.48-.07l1.47-.56Z"/><path class="cls-9" d="M248.85,293.4l-.37-1-.78,0-.17-.44,2.89.11.13.35-2.1,2-.18-.49Zm1-.94-1,0,.27.73Z"/><path class="cls-9" d="M252,296.28l-1.48.56a1,1,0,0,1-.93,0,1.31,1.31,0,0,1-.49-.64,1.14,1.14,0,0,1,0-1.06,1.19,1.19,0,0,1,.6-.41l1.48-.55.17.45-1.47.56c-.29.11-.42.21-.47.38a.68.68,0,0,0,0,.44c.1.26.23.4.41.44a.82.82,0,0,0,.48-.07l1.47-.56Z"/><path class="cls-9" d="M252,299.3l1-.38.18.46-2.46.92-.17-.45,1.08-.41-.43-1.15-1.08.41-.17-.46,2.45-.92.17.45-1,.38Z"/><path class="cls-9" d="M251.49,302.46l-.17-.45,2.08-.79-.3-.79.37-.14.77,2-.37.14-.3-.79Z"/><path class="cls-9" d="M253.76,304.07l.33.88-.36.13-.33-.87-.72.27.43,1.13-.4.09-.58-1.52,2.46-.93.53,1.41-.38.14-.36-1Z"/><path class="cls-9" d="M254.14,309.5,254,309l1.56-.79-1.9-.12-.11-.29,1.33-1.32-1.67.42-.16-.4,2.58-.6.13.34-1.5,1.5,2.12.13.12.34Z"/><path class="cls-9" d="M256.64,312.43a1.36,1.36,0,1,1,.8-1.79A1.33,1.33,0,0,1,256.64,312.43Zm-.11-2.13a1,1,0,0,0-.64.06,1.15,1.15,0,0,0-.57.52.78.78,0,0,0,0,.6.79.79,0,0,0,1.13.47.93.93,0,0,0,.62-1.18A.79.79,0,0,0,256.53,310.3Z"/><path class="cls-9" d="M258.36,314.88a1,1,0,0,0,0-.62.84.84,0,0,0-1.15-.47,1,1,0,0,0-.55.49.88.88,0,0,0,0,.64,1,1,0,0,0,.41.53l-.29.32a1.4,1.4,0,0,1-.57-.75,1.36,1.36,0,0,1,0-1,1.46,1.46,0,0,1,1.91-.66,1.46,1.46,0,0,1,.65.75,1.52,1.52,0,0,1,.07.87Z"/><polygon class="cls-9" points="256.08 304.47 255.95 303.98 255 303.68 255.06 304 255.09 304.04 256.08 304.47"/></g></svg>